<?xml version="1.0" encoding="utf-8" standalone="no"?>
<!DOCTYPE svg PUBLIC "-//W3C//DTD SVG 1.1//EN"
  "http://www.w3.org/Graphics/SVG/1.1/DTD/svg11.dtd">
<svg xmlns:xlink="http://www.w3.org/1999/xlink" width="460.8pt" height="345.6pt" viewBox="0 0 460.8 345.6" xmlns="http://www.w3.org/2000/svg" version="1.1">
 <metadata>
  <rdf:RDF xmlns:dc="http://purl.org/dc/elements/1.1/" xmlns:cc="http://creativecommons.org/ns#" xmlns:rdf="http://www.w3.org/1999/02/22-rdf-syntax-ns#">
   <cc:Work>
    <dc:type rdf:resource="http://purl.org/dc/dcmitype/StillImage"/>
    <dc:date>2024-04-14T21:56:11.902128</dc:date>
    <dc:format>image/svg+xml</dc:format>
    <dc:creator>
     <cc:Agent>
      <dc:title>Matplotlib v3.8.0, https://matplotlib.org/</dc:title>
     </cc:Agent>
    </dc:creator>
   </cc:Work>
  </rdf:RDF>
 </metadata>
 <defs>
  <style type="text/css">*{stroke-linejoin: round; stroke-linecap: butt}</style>
 </defs>
 <g id="figure_1">
  <g id="patch_1">
   <path d="M 0 345.6 
L 460.8 345.6 
L 460.8 0 
L 0 0 
z
" style="fill: #ffffff"/>
  </g>
  <g id="axes_1">
   <g id="patch_2">
    <path d="M 57.6 307.584 
L 414.72 307.584 
L 414.72 41.472 
L 57.6 41.472 
z
" style="fill: #ffffff"/>
   </g>
   <g id="matplotlib.axis_1">
    <g id="xtick_1">
     <g id="line2d_1">
      <path d="M 123.356302 307.584 
L 123.356302 41.472 
" clip-path="url(#p49bf15da6f)" style="fill: none; stroke: #cccccc; stroke-linecap: round"/>
     </g>
     <g id="line2d_2">
      <defs>
       <path id="mc46444cfd0" d="M 0 0 
L 0 6 
" style="stroke: #262626; stroke-width: 1.25"/>
      </defs>
      <g>
       <use xlink:href="#mc46444cfd0" x="123.356302" y="307.584" style="fill: #262626; stroke: #262626; stroke-width: 1.25"/>
      </g>
     </g>
     <g id="text_1">
      <!-- -1000 -->
      <g style="fill: #262626" transform="translate(107.374505 325.442281) scale(0.11 -0.11)">
       <defs>
        <path id="DejaVuSans-2d" d="M 313 2009 
L 1997 2009 
L 1997 1497 
L 313 1497 
L 313 2009 
z
" transform="scale(0.015625)"/>
        <path id="DejaVuSans-31" d="M 794 531 
L 1825 531 
L 1825 4091 
L 703 3866 
L 703 4441 
L 1819 4666 
L 2450 4666 
L 2450 531 
L 3481 531 
L 3481 0 
L 794 0 
L 794 531 
z
" transform="scale(0.015625)"/>
        <path id="DejaVuSans-30" d="M 2034 4250 
Q 1547 4250 1301 3770 
Q 1056 3291 1056 2328 
Q 1056 1369 1301 889 
Q 1547 409 2034 409 
Q 2525 409 2770 889 
Q 3016 1369 3016 2328 
Q 3016 3291 2770 3770 
Q 2525 4250 2034 4250 
z
M 2034 4750 
Q 2819 4750 3233 4129 
Q 3647 3509 3647 2328 
Q 3647 1150 3233 529 
Q 2819 -91 2034 -91 
Q 1250 -91 836 529 
Q 422 1150 422 2328 
Q 422 3509 836 4129 
Q 1250 4750 2034 4750 
z
" transform="scale(0.015625)"/>
       </defs>
       <use xlink:href="#DejaVuSans-2d"/>
       <use xlink:href="#DejaVuSans-31" x="36.083984"/>
       <use xlink:href="#DejaVuSans-30" x="99.707031"/>
       <use xlink:href="#DejaVuSans-30" x="163.330078"/>
       <use xlink:href="#DejaVuSans-30" x="226.953125"/>
      </g>
     </g>
    </g>
    <g id="xtick_2">
     <g id="line2d_3">
      <path d="M 192.139045 307.584 
L 192.139045 41.472 
" clip-path="url(#p49bf15da6f)" style="fill: none; stroke: #cccccc; stroke-linecap: round"/>
     </g>
     <g id="line2d_4">
      <g>
       <use xlink:href="#mc46444cfd0" x="192.139045" y="307.584" style="fill: #262626; stroke: #262626; stroke-width: 1.25"/>
      </g>
     </g>
     <g id="text_2">
      <!-- -750 -->
      <g style="fill: #262626" transform="translate(179.656623 325.442281) scale(0.11 -0.11)">
       <defs>
        <path id="DejaVuSans-37" d="M 525 4666 
L 3525 4666 
L 3525 4397 
L 1831 0 
L 1172 0 
L 2766 4134 
L 525 4134 
L 525 4666 
z
" transform="scale(0.015625)"/>
        <path id="DejaVuSans-35" d="M 691 4666 
L 3169 4666 
L 3169 4134 
L 1269 4134 
L 1269 2991 
Q 1406 3038 1543 3061 
Q 1681 3084 1819 3084 
Q 2600 3084 3056 2656 
Q 3513 2228 3513 1497 
Q 3513 744 3044 326 
Q 2575 -91 1722 -91 
Q 1428 -91 1123 -41 
Q 819 9 494 109 
L 494 744 
Q 775 591 1075 516 
Q 1375 441 1709 441 
Q 2250 441 2565 725 
Q 2881 1009 2881 1497 
Q 2881 1984 2565 2268 
Q 2250 2553 1709 2553 
Q 1456 2553 1204 2497 
Q 953 2441 691 2322 
L 691 4666 
z
" transform="scale(0.015625)"/>
       </defs>
       <use xlink:href="#DejaVuSans-2d"/>
       <use xlink:href="#DejaVuSans-37" x="36.083984"/>
       <use xlink:href="#DejaVuSans-35" x="99.707031"/>
       <use xlink:href="#DejaVuSans-30" x="163.330078"/>
      </g>
     </g>
    </g>
    <g id="xtick_3">
     <g id="line2d_5">
      <path d="M 260.921787 307.584 
L 260.921787 41.472 
" clip-path="url(#p49bf15da6f)" style="fill: none; stroke: #cccccc; stroke-linecap: round"/>
     </g>
     <g id="line2d_6">
      <g>
       <use xlink:href="#mc46444cfd0" x="260.921787" y="307.584" style="fill: #262626; stroke: #262626; stroke-width: 1.25"/>
      </g>
     </g>
     <g id="text_3">
      <!-- -500 -->
      <g style="fill: #262626" transform="translate(248.439365 325.442281) scale(0.11 -0.11)">
       <use xlink:href="#DejaVuSans-2d"/>
       <use xlink:href="#DejaVuSans-35" x="36.083984"/>
       <use xlink:href="#DejaVuSans-30" x="99.707031"/>
       <use xlink:href="#DejaVuSans-30" x="163.330078"/>
      </g>
     </g>
    </g>
    <g id="xtick_4">
     <g id="line2d_7">
      <path d="M 329.70453 307.584 
L 329.70453 41.472 
" clip-path="url(#p49bf15da6f)" style="fill: none; stroke: #cccccc; stroke-linecap: round"/>
     </g>
     <g id="line2d_8">
      <g>
       <use xlink:href="#mc46444cfd0" x="329.70453" y="307.584" style="fill: #262626; stroke: #262626; stroke-width: 1.25"/>
      </g>
     </g>
     <g id="text_4">
      <!-- -250 -->
      <g style="fill: #262626" transform="translate(317.222108 325.442281) scale(0.11 -0.11)">
       <defs>
        <path id="DejaVuSans-32" d="M 1228 531 
L 3431 531 
L 3431 0 
L 469 0 
L 469 531 
Q 828 903 1448 1529 
Q 2069 2156 2228 2338 
Q 2531 2678 2651 2914 
Q 2772 3150 2772 3378 
Q 2772 3750 2511 3984 
Q 2250 4219 1831 4219 
Q 1534 4219 1204 4116 
Q 875 4013 500 3803 
L 500 4441 
Q 881 4594 1212 4672 
Q 1544 4750 1819 4750 
Q 2544 4750 2975 4387 
Q 3406 4025 3406 3419 
Q 3406 3131 3298 2873 
Q 3191 2616 2906 2266 
Q 2828 2175 2409 1742 
Q 1991 1309 1228 531 
z
" transform="scale(0.015625)"/>
       </defs>
       <use xlink:href="#DejaVuSans-2d"/>
       <use xlink:href="#DejaVuSans-32" x="36.083984"/>
       <use xlink:href="#DejaVuSans-35" x="99.707031"/>
       <use xlink:href="#DejaVuSans-30" x="163.330078"/>
      </g>
     </g>
    </g>
    <g id="xtick_5">
     <g id="line2d_9">
      <path d="M 398.487273 307.584 
L 398.487273 41.472 
" clip-path="url(#p49bf15da6f)" style="fill: none; stroke: #cccccc; stroke-linecap: round"/>
     </g>
     <g id="line2d_10">
      <g>
       <use xlink:href="#mc46444cfd0" x="398.487273" y="307.584" style="fill: #262626; stroke: #262626; stroke-width: 1.25"/>
      </g>
     </g>
     <g id="text_5">
      <!-- 0 -->
      <g style="fill: #262626" transform="translate(394.987898 325.442281) scale(0.11 -0.11)">
       <use xlink:href="#DejaVuSans-30"/>
      </g>
     </g>
    </g>
    <g id="text_6">
     <!-- time point (min) -->
     <g style="fill: #262626" transform="translate(187.493437 340.848062) scale(0.12 -0.12)">
      <defs>
       <path id="DejaVuSans-74" d="M 1172 4494 
L 1172 3500 
L 2356 3500 
L 2356 3053 
L 1172 3053 
L 1172 1153 
Q 1172 725 1289 603 
Q 1406 481 1766 481 
L 2356 481 
L 2356 0 
L 1766 0 
Q 1100 0 847 248 
Q 594 497 594 1153 
L 594 3053 
L 172 3053 
L 172 3500 
L 594 3500 
L 594 4494 
L 1172 4494 
z
" transform="scale(0.015625)"/>
       <path id="DejaVuSans-69" d="M 603 3500 
L 1178 3500 
L 1178 0 
L 603 0 
L 603 3500 
z
M 603 4863 
L 1178 4863 
L 1178 4134 
L 603 4134 
L 603 4863 
z
" transform="scale(0.015625)"/>
       <path id="DejaVuSans-6d" d="M 3328 2828 
Q 3544 3216 3844 3400 
Q 4144 3584 4550 3584 
Q 5097 3584 5394 3201 
Q 5691 2819 5691 2113 
L 5691 0 
L 5113 0 
L 5113 2094 
Q 5113 2597 4934 2840 
Q 4756 3084 4391 3084 
Q 3944 3084 3684 2787 
Q 3425 2491 3425 1978 
L 3425 0 
L 2847 0 
L 2847 2094 
Q 2847 2600 2669 2842 
Q 2491 3084 2119 3084 
Q 1678 3084 1418 2786 
Q 1159 2488 1159 1978 
L 1159 0 
L 581 0 
L 581 3500 
L 1159 3500 
L 1159 2956 
Q 1356 3278 1631 3431 
Q 1906 3584 2284 3584 
Q 2666 3584 2933 3390 
Q 3200 3197 3328 2828 
z
" transform="scale(0.015625)"/>
       <path id="DejaVuSans-65" d="M 3597 1894 
L 3597 1613 
L 953 1613 
Q 991 1019 1311 708 
Q 1631 397 2203 397 
Q 2534 397 2845 478 
Q 3156 559 3463 722 
L 3463 178 
Q 3153 47 2828 -22 
Q 2503 -91 2169 -91 
Q 1331 -91 842 396 
Q 353 884 353 1716 
Q 353 2575 817 3079 
Q 1281 3584 2069 3584 
Q 2775 3584 3186 3129 
Q 3597 2675 3597 1894 
z
M 3022 2063 
Q 3016 2534 2758 2815 
Q 2500 3097 2075 3097 
Q 1594 3097 1305 2825 
Q 1016 2553 972 2059 
L 3022 2063 
z
" transform="scale(0.015625)"/>
       <path id="DejaVuSans-20" transform="scale(0.015625)"/>
       <path id="DejaVuSans-70" d="M 1159 525 
L 1159 -1331 
L 581 -1331 
L 581 3500 
L 1159 3500 
L 1159 2969 
Q 1341 3281 1617 3432 
Q 1894 3584 2278 3584 
Q 2916 3584 3314 3078 
Q 3713 2572 3713 1747 
Q 3713 922 3314 415 
Q 2916 -91 2278 -91 
Q 1894 -91 1617 61 
Q 1341 213 1159 525 
z
M 3116 1747 
Q 3116 2381 2855 2742 
Q 2594 3103 2138 3103 
Q 1681 3103 1420 2742 
Q 1159 2381 1159 1747 
Q 1159 1113 1420 752 
Q 1681 391 2138 391 
Q 2594 391 2855 752 
Q 3116 1113 3116 1747 
z
" transform="scale(0.015625)"/>
       <path id="DejaVuSans-6f" d="M 1959 3097 
Q 1497 3097 1228 2736 
Q 959 2375 959 1747 
Q 959 1119 1226 758 
Q 1494 397 1959 397 
Q 2419 397 2687 759 
Q 2956 1122 2956 1747 
Q 2956 2369 2687 2733 
Q 2419 3097 1959 3097 
z
M 1959 3584 
Q 2709 3584 3137 3096 
Q 3566 2609 3566 1747 
Q 3566 888 3137 398 
Q 2709 -91 1959 -91 
Q 1206 -91 779 398 
Q 353 888 353 1747 
Q 353 2609 779 3096 
Q 1206 3584 1959 3584 
z
" transform="scale(0.015625)"/>
       <path id="DejaVuSans-6e" d="M 3513 2113 
L 3513 0 
L 2938 0 
L 2938 2094 
Q 2938 2591 2744 2837 
Q 2550 3084 2163 3084 
Q 1697 3084 1428 2787 
Q 1159 2491 1159 1978 
L 1159 0 
L 581 0 
L 581 3500 
L 1159 3500 
L 1159 2956 
Q 1366 3272 1645 3428 
Q 1925 3584 2291 3584 
Q 2894 3584 3203 3211 
Q 3513 2838 3513 2113 
z
" transform="scale(0.015625)"/>
       <path id="DejaVuSans-28" d="M 1984 4856 
Q 1566 4138 1362 3434 
Q 1159 2731 1159 2009 
Q 1159 1288 1364 580 
Q 1569 -128 1984 -844 
L 1484 -844 
Q 1016 -109 783 600 
Q 550 1309 550 2009 
Q 550 2706 781 3412 
Q 1013 4119 1484 4856 
L 1984 4856 
z
" transform="scale(0.015625)"/>
       <path id="DejaVuSans-29" d="M 513 4856 
L 1013 4856 
Q 1481 4119 1714 3412 
Q 1947 2706 1947 2009 
Q 1947 1309 1714 600 
Q 1481 -109 1013 -844 
L 513 -844 
Q 928 -128 1133 580 
Q 1338 1288 1338 2009 
Q 1338 2731 1133 3434 
Q 928 4138 513 4856 
z
" transform="scale(0.015625)"/>
      </defs>
      <use xlink:href="#DejaVuSans-74"/>
      <use xlink:href="#DejaVuSans-69" x="39.208984"/>
      <use xlink:href="#DejaVuSans-6d" x="66.992188"/>
      <use xlink:href="#DejaVuSans-65" x="164.404297"/>
      <use xlink:href="#DejaVuSans-20" x="225.927734"/>
      <use xlink:href="#DejaVuSans-70" x="257.714844"/>
      <use xlink:href="#DejaVuSans-6f" x="321.191406"/>
      <use xlink:href="#DejaVuSans-69" x="382.373047"/>
      <use xlink:href="#DejaVuSans-6e" x="410.15625"/>
      <use xlink:href="#DejaVuSans-74" x="473.535156"/>
      <use xlink:href="#DejaVuSans-20" x="512.744141"/>
      <use xlink:href="#DejaVuSans-28" x="544.53125"/>
      <use xlink:href="#DejaVuSans-6d" x="583.544922"/>
      <use xlink:href="#DejaVuSans-69" x="680.957031"/>
      <use xlink:href="#DejaVuSans-6e" x="708.740234"/>
      <use xlink:href="#DejaVuSans-29" x="772.119141"/>
     </g>
    </g>
   </g>
   <g id="matplotlib.axis_2">
    <g id="ytick_1">
     <g id="line2d_11">
      <path d="M 57.6 268.692767 
L 414.72 268.692767 
" clip-path="url(#p49bf15da6f)" style="fill: none; stroke: #cccccc; stroke-linecap: round"/>
     </g>
     <g id="line2d_12">
      <defs>
       <path id="mf9eb7de877" d="M 0 0 
L -6 0 
" style="stroke: #262626; stroke-width: 1.25"/>
      </defs>
      <g>
       <use xlink:href="#mf9eb7de877" x="57.6" y="268.692767" style="fill: #262626; stroke: #262626; stroke-width: 1.25"/>
      </g>
     </g>
     <g id="text_7">
      <!-- 0.4 -->
      <g style="fill: #262626" transform="translate(30.606563 272.871907) scale(0.11 -0.11)">
       <defs>
        <path id="DejaVuSans-2e" d="M 684 794 
L 1344 794 
L 1344 0 
L 684 0 
L 684 794 
z
" transform="scale(0.015625)"/>
        <path id="DejaVuSans-34" d="M 2419 4116 
L 825 1625 
L 2419 1625 
L 2419 4116 
z
M 2253 4666 
L 3047 4666 
L 3047 1625 
L 3713 1625 
L 3713 1100 
L 3047 1100 
L 3047 0 
L 2419 0 
L 2419 1100 
L 313 1100 
L 313 1709 
L 2253 4666 
z
" transform="scale(0.015625)"/>
       </defs>
       <use xlink:href="#DejaVuSans-30"/>
       <use xlink:href="#DejaVuSans-2e" x="63.623047"/>
       <use xlink:href="#DejaVuSans-34" x="95.410156"/>
      </g>
     </g>
    </g>
    <g id="ytick_2">
     <g id="line2d_13">
      <path d="M 57.6 221.703616 
L 414.72 221.703616 
" clip-path="url(#p49bf15da6f)" style="fill: none; stroke: #cccccc; stroke-linecap: round"/>
     </g>
     <g id="line2d_14">
      <g>
       <use xlink:href="#mf9eb7de877" x="57.6" y="221.703616" style="fill: #262626; stroke: #262626; stroke-width: 1.25"/>
      </g>
     </g>
     <g id="text_8">
      <!-- 0.5 -->
      <g style="fill: #262626" transform="translate(30.606563 225.882757) scale(0.11 -0.11)">
       <use xlink:href="#DejaVuSans-30"/>
       <use xlink:href="#DejaVuSans-2e" x="63.623047"/>
       <use xlink:href="#DejaVuSans-35" x="95.410156"/>
      </g>
     </g>
    </g>
    <g id="ytick_3">
     <g id="line2d_15">
      <path d="M 57.6 174.714466 
L 414.72 174.714466 
" clip-path="url(#p49bf15da6f)" style="fill: none; stroke: #cccccc; stroke-linecap: round"/>
     </g>
     <g id="line2d_16">
      <g>
       <use xlink:href="#mf9eb7de877" x="57.6" y="174.714466" style="fill: #262626; stroke: #262626; stroke-width: 1.25"/>
      </g>
     </g>
     <g id="text_9">
      <!-- 0.6 -->
      <g style="fill: #262626" transform="translate(30.606563 178.893606) scale(0.11 -0.11)">
       <defs>
        <path id="DejaVuSans-36" d="M 2113 2584 
Q 1688 2584 1439 2293 
Q 1191 2003 1191 1497 
Q 1191 994 1439 701 
Q 1688 409 2113 409 
Q 2538 409 2786 701 
Q 3034 994 3034 1497 
Q 3034 2003 2786 2293 
Q 2538 2584 2113 2584 
z
M 3366 4563 
L 3366 3988 
Q 3128 4100 2886 4159 
Q 2644 4219 2406 4219 
Q 1781 4219 1451 3797 
Q 1122 3375 1075 2522 
Q 1259 2794 1537 2939 
Q 1816 3084 2150 3084 
Q 2853 3084 3261 2657 
Q 3669 2231 3669 1497 
Q 3669 778 3244 343 
Q 2819 -91 2113 -91 
Q 1303 -91 875 529 
Q 447 1150 447 2328 
Q 447 3434 972 4092 
Q 1497 4750 2381 4750 
Q 2619 4750 2861 4703 
Q 3103 4656 3366 4563 
z
" transform="scale(0.015625)"/>
       </defs>
       <use xlink:href="#DejaVuSans-30"/>
       <use xlink:href="#DejaVuSans-2e" x="63.623047"/>
       <use xlink:href="#DejaVuSans-36" x="95.410156"/>
      </g>
     </g>
    </g>
    <g id="ytick_4">
     <g id="line2d_17">
      <path d="M 57.6 127.725315 
L 414.72 127.725315 
" clip-path="url(#p49bf15da6f)" style="fill: none; stroke: #cccccc; stroke-linecap: round"/>
     </g>
     <g id="line2d_18">
      <g>
       <use xlink:href="#mf9eb7de877" x="57.6" y="127.725315" style="fill: #262626; stroke: #262626; stroke-width: 1.25"/>
      </g>
     </g>
     <g id="text_10">
      <!-- 0.7 -->
      <g style="fill: #262626" transform="translate(30.606563 131.904456) scale(0.11 -0.11)">
       <use xlink:href="#DejaVuSans-30"/>
       <use xlink:href="#DejaVuSans-2e" x="63.623047"/>
       <use xlink:href="#DejaVuSans-37" x="95.410156"/>
      </g>
     </g>
    </g>
    <g id="ytick_5">
     <g id="line2d_19">
      <path d="M 57.6 80.736165 
L 414.72 80.736165 
" clip-path="url(#p49bf15da6f)" style="fill: none; stroke: #cccccc; stroke-linecap: round"/>
     </g>
     <g id="line2d_20">
      <g>
       <use xlink:href="#mf9eb7de877" x="57.6" y="80.736165" style="fill: #262626; stroke: #262626; stroke-width: 1.25"/>
      </g>
     </g>
     <g id="text_11">
      <!-- 0.8 -->
      <g style="fill: #262626" transform="translate(30.606563 84.915305) scale(0.11 -0.11)">
       <defs>
        <path id="DejaVuSans-38" d="M 2034 2216 
Q 1584 2216 1326 1975 
Q 1069 1734 1069 1313 
Q 1069 891 1326 650 
Q 1584 409 2034 409 
Q 2484 409 2743 651 
Q 3003 894 3003 1313 
Q 3003 1734 2745 1975 
Q 2488 2216 2034 2216 
z
M 1403 2484 
Q 997 2584 770 2862 
Q 544 3141 544 3541 
Q 544 4100 942 4425 
Q 1341 4750 2034 4750 
Q 2731 4750 3128 4425 
Q 3525 4100 3525 3541 
Q 3525 3141 3298 2862 
Q 3072 2584 2669 2484 
Q 3125 2378 3379 2068 
Q 3634 1759 3634 1313 
Q 3634 634 3220 271 
Q 2806 -91 2034 -91 
Q 1263 -91 848 271 
Q 434 634 434 1313 
Q 434 1759 690 2068 
Q 947 2378 1403 2484 
z
M 1172 3481 
Q 1172 3119 1398 2916 
Q 1625 2713 2034 2713 
Q 2441 2713 2670 2916 
Q 2900 3119 2900 3481 
Q 2900 3844 2670 4047 
Q 2441 4250 2034 4250 
Q 1625 4250 1398 4047 
Q 1172 3844 1172 3481 
z
" transform="scale(0.015625)"/>
       </defs>
       <use xlink:href="#DejaVuSans-30"/>
       <use xlink:href="#DejaVuSans-2e" x="63.623047"/>
       <use xlink:href="#DejaVuSans-38" x="95.410156"/>
      </g>
     </g>
    </g>
    <g id="text_12">
     <!-- eccentricity -->
     <g style="fill: #262626" transform="translate(24.110937 209.667375) rotate(-90) scale(0.12 -0.12)">
      <defs>
       <path id="DejaVuSans-63" d="M 3122 3366 
L 3122 2828 
Q 2878 2963 2633 3030 
Q 2388 3097 2138 3097 
Q 1578 3097 1268 2742 
Q 959 2388 959 1747 
Q 959 1106 1268 751 
Q 1578 397 2138 397 
Q 2388 397 2633 464 
Q 2878 531 3122 666 
L 3122 134 
Q 2881 22 2623 -34 
Q 2366 -91 2075 -91 
Q 1284 -91 818 406 
Q 353 903 353 1747 
Q 353 2603 823 3093 
Q 1294 3584 2113 3584 
Q 2378 3584 2631 3529 
Q 2884 3475 3122 3366 
z
" transform="scale(0.015625)"/>
       <path id="DejaVuSans-72" d="M 2631 2963 
Q 2534 3019 2420 3045 
Q 2306 3072 2169 3072 
Q 1681 3072 1420 2755 
Q 1159 2438 1159 1844 
L 1159 0 
L 581 0 
L 581 3500 
L 1159 3500 
L 1159 2956 
Q 1341 3275 1631 3429 
Q 1922 3584 2338 3584 
Q 2397 3584 2469 3576 
Q 2541 3569 2628 3553 
L 2631 2963 
z
" transform="scale(0.015625)"/>
       <path id="DejaVuSans-79" d="M 2059 -325 
Q 1816 -950 1584 -1140 
Q 1353 -1331 966 -1331 
L 506 -1331 
L 506 -850 
L 844 -850 
Q 1081 -850 1212 -737 
Q 1344 -625 1503 -206 
L 1606 56 
L 191 3500 
L 800 3500 
L 1894 763 
L 2988 3500 
L 3597 3500 
L 2059 -325 
z
" transform="scale(0.015625)"/>
      </defs>
      <use xlink:href="#DejaVuSans-65"/>
      <use xlink:href="#DejaVuSans-63" x="61.523438"/>
      <use xlink:href="#DejaVuSans-63" x="116.503906"/>
      <use xlink:href="#DejaVuSans-65" x="171.484375"/>
      <use xlink:href="#DejaVuSans-6e" x="233.007812"/>
      <use xlink:href="#DejaVuSans-74" x="296.386719"/>
      <use xlink:href="#DejaVuSans-72" x="335.595703"/>
      <use xlink:href="#DejaVuSans-69" x="376.708984"/>
      <use xlink:href="#DejaVuSans-63" x="404.492188"/>
      <use xlink:href="#DejaVuSans-69" x="459.472656"/>
      <use xlink:href="#DejaVuSans-74" x="487.255859"/>
      <use xlink:href="#DejaVuSans-79" x="526.464844"/>
     </g>
    </g>
   </g>
   <g id="PolyCollection_1">
    <defs>
     <path id="ma47032e938" d="M 86.213621 -174.390204 
L 86.213621 -138.909855 
L 87.589276 -147.803064 
L 88.964931 -172.25193 
L 90.340586 -175.062275 
L 91.71624 -175.219126 
L 93.091895 -160.257338 
L 94.46755 -168.616738 
L 95.843205 -169.347559 
L 97.21886 -157.369277 
L 98.594515 -149.920309 
L 99.970169 -159.324635 
L 101.345824 -179.750542 
L 102.721479 -115.999245 
L 104.097134 -119.909501 
L 105.472789 -101.693086 
L 106.848444 -105.241196 
L 108.224099 -119.795296 
L 109.599753 -100.538101 
L 110.975408 -89.954943 
L 112.351063 -91.156881 
L 113.726718 -127.873993 
L 115.102373 -50.112 
L 116.478028 -96.906867 
L 117.853683 -116.315907 
L 119.229337 -94.781473 
L 120.604992 -128.456958 
L 121.980647 -125.579022 
L 123.356302 -124.760299 
L 124.731957 -135.404314 
L 126.107612 -127.304459 
L 127.483267 -123.534953 
L 128.858921 -126.577822 
L 130.234576 -143.0032 
L 131.610231 -114.061513 
L 132.985886 -131.032599 
L 134.361541 -125.337831 
L 135.737196 -142.976295 
L 137.112851 -141.02868 
L 138.488505 -139.835726 
L 139.86416 -124.008705 
L 141.239815 -135.620322 
L 142.61547 -124.916862 
L 143.991125 -122.478679 
L 145.36678 -127.326556 
L 146.742435 -124.138164 
L 148.118089 -120.838307 
L 149.493744 -118.726127 
L 150.869399 -122.740158 
L 152.245054 -128.126873 
L 153.620709 -121.582784 
L 154.996364 -110.684905 
L 156.372018 -123.691323 
L 157.747673 -129.260149 
L 159.123328 -124.445185 
L 160.498983 -133.323714 
L 161.874638 -138.116959 
L 163.250293 -132.641453 
L 164.625948 -131.162191 
L 166.001602 -132.422161 
L 167.377257 -141.82133 
L 168.752912 -137.177072 
L 170.128567 -144.604802 
L 171.504222 -140.219184 
L 172.879877 -138.757132 
L 174.255532 -145.926123 
L 175.631186 -147.159379 
L 177.006841 -143.321391 
L 178.382496 -140.296042 
L 179.758151 -146.376295 
L 181.133806 -150.217472 
L 182.509461 -151.962924 
L 183.885116 -137.910874 
L 185.26077 -146.930748 
L 186.636425 -145.0253 
L 188.01208 -142.710104 
L 189.387735 -149.016103 
L 190.76339 -150.703298 
L 192.139045 -155.294189 
L 193.5147 -155.501614 
L 194.890354 -154.060081 
L 196.266009 -149.709064 
L 197.641664 -151.335206 
L 199.017319 -144.889455 
L 200.392974 -155.410206 
L 201.768629 -156.021908 
L 203.144284 -152.033103 
L 204.519938 -155.837798 
L 205.895593 -149.465492 
L 207.271248 -147.098955 
L 208.646903 -149.332672 
L 210.022558 -152.71945 
L 211.398213 -153.107725 
L 212.773867 -157.731387 
L 214.149522 -151.543656 
L 215.525177 -151.402213 
L 216.900832 -156.685651 
L 218.276487 -157.487678 
L 219.652142 -161.472874 
L 221.027797 -158.862784 
L 222.403451 -160.330808 
L 223.779106 -158.020183 
L 225.154761 -157.41049 
L 226.530416 -157.285017 
L 227.906071 -156.811325 
L 229.281726 -157.932246 
L 230.657381 -159.823422 
L 232.033035 -156.528008 
L 233.40869 -157.68191 
L 234.784345 -158.911464 
L 236.16 -157.095199 
L 237.535655 -157.516888 
L 238.91131 -157.914497 
L 240.286965 -159.357881 
L 241.662619 -158.732026 
L 243.038274 -158.281301 
L 244.413929 -161.034146 
L 245.789584 -157.448287 
L 247.165239 -154.965656 
L 248.540894 -157.560019 
L 249.916549 -151.9754 
L 251.292203 -155.039135 
L 252.667858 -154.64806 
L 254.043513 -155.042895 
L 255.419168 -158.232953 
L 256.794823 -157.764833 
L 258.170478 -156.560266 
L 259.546133 -154.573774 
L 260.921787 -157.069593 
L 262.297442 -156.780052 
L 263.673097 -156.006539 
L 265.048752 -156.185219 
L 266.424407 -161.897163 
L 267.800062 -156.756723 
L 269.175716 -158.784873 
L 270.551371 -160.0271 
L 271.927026 -166.503813 
L 273.302681 -162.783146 
L 274.678336 -162.359025 
L 276.053991 -165.283451 
L 277.429646 -162.002009 
L 278.8053 -161.650691 
L 280.180955 -162.466903 
L 281.55661 -163.992893 
L 282.932265 -165.127649 
L 284.30792 -165.7444 
L 285.683575 -161.286115 
L 287.05923 -162.409886 
L 288.434884 -162.599157 
L 289.810539 -162.453681 
L 291.186194 -161.323981 
L 292.561849 -160.484775 
L 293.937504 -163.477057 
L 295.313159 -163.365849 
L 296.688814 -161.941476 
L 298.064468 -163.857386 
L 299.440123 -166.503257 
L 300.815778 -168.884838 
L 302.191433 -166.895557 
L 303.567088 -168.05814 
L 304.942743 -169.156533 
L 306.318398 -168.904619 
L 307.694052 -171.215054 
L 309.069707 -171.700474 
L 310.445362 -171.784259 
L 311.821017 -170.584129 
L 313.196672 -172.647275 
L 314.572327 -168.951185 
L 315.947982 -167.428546 
L 317.323636 -171.50348 
L 318.699291 -170.557846 
L 320.074946 -171.614407 
L 321.450601 -169.029002 
L 322.826256 -173.801336 
L 324.201911 -171.552109 
L 325.577565 -171.464675 
L 326.95322 -172.264225 
L 328.328875 -173.795366 
L 329.70453 -174.280816 
L 331.080185 -173.609003 
L 332.45584 -176.553507 
L 333.831495 -174.435082 
L 335.207149 -173.852077 
L 336.582804 -172.540001 
L 337.958459 -172.866639 
L 339.334114 -173.134282 
L 340.709769 -171.28445 
L 342.085424 -171.205411 
L 343.461079 -169.298495 
L 344.836733 -175.723994 
L 346.212388 -172.567717 
L 347.588043 -171.610621 
L 348.963698 -173.353659 
L 350.339353 -173.941474 
L 351.715008 -172.208184 
L 353.090663 -178.076864 
L 354.466317 -175.125004 
L 355.841972 -177.48183 
L 357.217627 -175.684753 
L 358.593282 -175.922538 
L 359.968937 -177.404371 
L 361.344592 -177.168086 
L 362.720247 -179.788918 
L 364.095901 -178.154721 
L 365.471556 -177.055703 
L 366.847211 -180.724306 
L 368.222866 -180.748753 
L 369.598521 -182.002097 
L 370.974176 -184.198569 
L 372.349831 -183.720757 
L 373.725485 -184.23529 
L 375.10114 -184.280872 
L 376.476795 -184.484369 
L 377.85245 -185.175584 
L 379.228105 -183.991256 
L 380.60376 -185.886828 
L 381.979414 -187.639305 
L 383.355069 -186.416836 
L 384.730724 -187.984711 
L 386.106379 -186.936999 
L 387.482034 -189.546769 
L 388.857689 -190.994707 
L 390.233344 -191.874327 
L 391.608998 -192.659041 
L 392.984653 -194.165554 
L 394.360308 -195.095191 
L 395.735963 -193.796314 
L 397.111618 -193.602419 
L 398.487273 -201.394995 
L 398.487273 -222.056155 
L 398.487273 -222.056155 
L 397.111618 -215.684851 
L 395.735963 -213.768417 
L 394.360308 -215.038532 
L 392.984653 -212.746298 
L 391.608998 -211.745675 
L 390.233344 -210.770888 
L 388.857689 -208.690569 
L 387.482034 -207.219345 
L 386.106379 -205.669018 
L 384.730724 -205.688334 
L 383.355069 -203.981465 
L 381.979414 -204.546069 
L 380.60376 -204.2001 
L 379.228105 -201.255852 
L 377.85245 -203.021814 
L 376.476795 -202.173415 
L 375.10114 -200.958418 
L 373.725485 -200.820651 
L 372.349831 -199.494787 
L 370.974176 -201.58119 
L 369.598521 -199.139659 
L 368.222866 -197.930215 
L 366.847211 -197.01236 
L 365.471556 -195.679717 
L 364.095901 -196.377632 
L 362.720247 -195.920754 
L 361.344592 -193.18635 
L 359.968937 -194.007879 
L 358.593282 -192.618444 
L 357.217627 -192.616884 
L 355.841972 -193.618147 
L 354.466317 -192.609547 
L 353.090663 -193.407501 
L 351.715008 -189.723419 
L 350.339353 -191.345088 
L 348.963698 -190.328903 
L 347.588043 -189.574932 
L 346.212388 -190.732595 
L 344.836733 -191.870501 
L 343.461079 -188.458172 
L 342.085424 -188.992065 
L 340.709769 -189.230703 
L 339.334114 -189.415744 
L 337.958459 -189.414312 
L 336.582804 -188.94839 
L 335.207149 -190.52194 
L 333.831495 -190.764585 
L 332.45584 -192.082432 
L 331.080185 -191.125341 
L 329.70453 -191.541789 
L 328.328875 -189.272914 
L 326.95322 -189.52262 
L 325.577565 -190.076884 
L 324.201911 -189.778536 
L 322.826256 -190.619157 
L 321.450601 -187.422275 
L 320.074946 -189.586037 
L 318.699291 -188.446517 
L 317.323636 -189.076974 
L 315.947982 -186.210017 
L 314.572327 -186.824108 
L 313.196672 -189.035492 
L 311.821017 -189.269126 
L 310.445362 -189.196036 
L 309.069707 -188.97406 
L 307.694052 -188.471535 
L 306.318398 -186.924886 
L 304.942743 -187.954156 
L 303.567088 -185.917503 
L 302.191433 -185.510472 
L 300.815778 -186.068578 
L 299.440123 -184.913502 
L 298.064468 -182.54442 
L 296.688814 -181.2677 
L 295.313159 -182.788237 
L 293.937504 -181.862028 
L 292.561849 -181.333241 
L 291.186194 -181.1487 
L 289.810539 -182.621824 
L 288.434884 -182.156927 
L 287.05923 -182.375262 
L 285.683575 -182.886242 
L 284.30792 -185.816616 
L 282.932265 -184.118678 
L 281.55661 -184.756412 
L 280.180955 -183.957476 
L 278.8053 -183.675901 
L 277.429646 -182.116356 
L 276.053991 -186.082512 
L 274.678336 -184.42142 
L 273.302681 -183.400237 
L 271.927026 -186.716931 
L 270.551371 -182.03535 
L 269.175716 -181.859326 
L 267.800062 -181.437202 
L 266.424407 -183.467193 
L 265.048752 -180.704024 
L 263.673097 -181.009912 
L 262.297442 -178.967525 
L 260.921787 -178.543731 
L 259.546133 -178.235803 
L 258.170478 -179.131759 
L 256.794823 -180.062314 
L 255.419168 -179.605824 
L 254.043513 -179.547348 
L 252.667858 -177.813351 
L 251.292203 -179.149972 
L 249.916549 -175.600386 
L 248.540894 -180.086919 
L 247.165239 -179.300444 
L 245.789584 -180.297047 
L 244.413929 -182.59429 
L 243.038274 -182.231029 
L 241.662619 -180.112047 
L 240.286965 -182.077706 
L 238.91131 -181.304191 
L 237.535655 -179.368977 
L 236.16 -180.435368 
L 234.784345 -180.916981 
L 233.40869 -182.715006 
L 232.033035 -182.476059 
L 230.657381 -183.615693 
L 229.281726 -181.166969 
L 227.906071 -183.328345 
L 226.530416 -182.785956 
L 225.154761 -182.39897 
L 223.779106 -185.661635 
L 222.403451 -184.352548 
L 221.027797 -183.064457 
L 219.652142 -183.609074 
L 218.276487 -182.652978 
L 216.900832 -181.194118 
L 215.525177 -180.19655 
L 214.149522 -177.91126 
L 212.773867 -184.362096 
L 211.398213 -179.648044 
L 210.022558 -177.422588 
L 208.646903 -178.095191 
L 207.271248 -177.337455 
L 205.895593 -178.696984 
L 204.519938 -180.778556 
L 203.144284 -179.055273 
L 201.768629 -181.495147 
L 200.392974 -179.164267 
L 199.017319 -175.103343 
L 197.641664 -180.110325 
L 196.266009 -180.268433 
L 194.890354 -181.614133 
L 193.5147 -184.289502 
L 192.139045 -183.291265 
L 190.76339 -179.370472 
L 189.387735 -179.748575 
L 188.01208 -176.147384 
L 186.636425 -177.856843 
L 185.26077 -178.813879 
L 183.885116 -177.254701 
L 182.509461 -183.189023 
L 181.133806 -178.068415 
L 179.758151 -177.22438 
L 178.382496 -179.212141 
L 177.006841 -179.478264 
L 175.631186 -180.401615 
L 174.255532 -182.585538 
L 172.879877 -179.012152 
L 171.504222 -178.62139 
L 170.128567 -177.967016 
L 168.752912 -174.495168 
L 167.377257 -175.841271 
L 166.001602 -173.635936 
L 164.625948 -168.837026 
L 163.250293 -172.97078 
L 161.874638 -175.767114 
L 160.498983 -176.299747 
L 159.123328 -169.650735 
L 157.747673 -170.849041 
L 156.372018 -168.460474 
L 154.996364 -163.500973 
L 153.620709 -171.478712 
L 152.245054 -170.124804 
L 150.869399 -170.291459 
L 149.493744 -176.206662 
L 148.118089 -175.309038 
L 146.742435 -174.877586 
L 145.36678 -172.390422 
L 143.991125 -174.990335 
L 142.61547 -183.853031 
L 141.239815 -181.770208 
L 139.86416 -178.532211 
L 138.488505 -188.343879 
L 137.112851 -183.754175 
L 135.737196 -184.836177 
L 134.361541 -179.412559 
L 132.985886 -181.284211 
L 131.610231 -178.441234 
L 130.234576 -185.354485 
L 128.858921 -188.839763 
L 127.483267 -188.791565 
L 126.107612 -182.694797 
L 124.731957 -182.883152 
L 123.356302 -184.000018 
L 121.980647 -185.586767 
L 120.604992 -183.129728 
L 119.229337 -185.022197 
L 117.853683 -195.878508 
L 116.478028 -190.758934 
L 115.102373 -190.958274 
L 113.726718 -210.482563 
L 112.351063 -216.679854 
L 110.975408 -216.617145 
L 109.599753 -216.633218 
L 108.224099 -221.454046 
L 106.848444 -219.153436 
L 105.472789 -219.806721 
L 104.097134 -216.434973 
L 102.721479 -204.81788 
L 101.345824 -230.800923 
L 99.970169 -201.5133 
L 98.594515 -189.749591 
L 97.21886 -217.037985 
L 95.843205 -188.844418 
L 94.46755 -189.937266 
L 93.091895 -183.948865 
L 91.71624 -195.316601 
L 90.340586 -187.941038 
L 88.964931 -179.312336 
L 87.589276 -177.496809 
L 86.213621 -174.390204 
z
" style="stroke: #7fbc38; stroke-opacity: 0.2"/>
    </defs>
    <g clip-path="url(#p49bf15da6f)">
     <use xlink:href="#ma47032e938" x="0" y="345.6" style="fill: #7fbc38; fill-opacity: 0.2; stroke: #7fbc38; stroke-opacity: 0.2"/>
    </g>
   </g>
   <g id="PolyCollection_2">
    <defs>
     <path id="mafd00898c5" d="M 79.335347 -289.039726 
L 79.335347 -201.218542 
L 80.711002 -181.559599 
L 82.086656 -179.459179 
L 83.462311 -207.065112 
L 84.837966 -153.419623 
L 86.213621 -216.175253 
L 87.589276 -217.437716 
L 88.964931 -191.810566 
L 90.340586 -183.094193 
L 91.71624 -161.700867 
L 93.091895 -176.385834 
L 94.46755 -175.160064 
L 95.843205 -202.808247 
L 97.21886 -213.971401 
L 98.594515 -192.882937 
L 99.970169 -186.196031 
L 101.345824 -193.914083 
L 102.721479 -178.799079 
L 104.097134 -193.049327 
L 105.472789 -186.805869 
L 106.848444 -190.056603 
L 108.224099 -200.639981 
L 109.599753 -205.969346 
L 110.975408 -185.33348 
L 112.351063 -198.807858 
L 113.726718 -192.835484 
L 115.102373 -184.530833 
L 116.478028 -188.894711 
L 117.853683 -176.805488 
L 119.229337 -180.124793 
L 120.604992 -187.259123 
L 121.980647 -188.97232 
L 123.356302 -182.251112 
L 124.731957 -185.03326 
L 126.107612 -184.304713 
L 127.483267 -191.734797 
L 128.858921 -186.181666 
L 130.234576 -196.04651 
L 131.610231 -185.368134 
L 132.985886 -184.6348 
L 134.361541 -190.542906 
L 135.737196 -180.599276 
L 137.112851 -183.359457 
L 138.488505 -194.010802 
L 139.86416 -192.9093 
L 141.239815 -186.119692 
L 142.61547 -188.622687 
L 143.991125 -191.790756 
L 145.36678 -186.80882 
L 146.742435 -172.908569 
L 148.118089 -181.931597 
L 149.493744 -170.450684 
L 150.869399 -186.585363 
L 152.245054 -188.011248 
L 153.620709 -182.333791 
L 154.996364 -178.644012 
L 156.372018 -187.760638 
L 157.747673 -179.373985 
L 159.123328 -188.005465 
L 160.498983 -192.402863 
L 161.874638 -182.429513 
L 163.250293 -188.898623 
L 164.625948 -190.604043 
L 166.001602 -183.43184 
L 167.377257 -186.828376 
L 168.752912 -180.039685 
L 170.128567 -186.946361 
L 171.504222 -183.790768 
L 172.879877 -186.955714 
L 174.255532 -190.962285 
L 175.631186 -192.421304 
L 177.006841 -188.26899 
L 178.382496 -188.596982 
L 179.758151 -184.68654 
L 181.133806 -174.321035 
L 182.509461 -184.686804 
L 183.885116 -180.372406 
L 185.26077 -182.843222 
L 186.636425 -188.708374 
L 188.01208 -188.650556 
L 189.387735 -187.688273 
L 190.76339 -181.900514 
L 192.139045 -180.935474 
L 193.5147 -175.510734 
L 194.890354 -179.544677 
L 196.266009 -185.082794 
L 197.641664 -180.596694 
L 199.017319 -174.147556 
L 200.392974 -177.72693 
L 201.768629 -182.183956 
L 203.144284 -179.082972 
L 204.519938 -181.303738 
L 205.895593 -178.371572 
L 207.271248 -176.121496 
L 208.646903 -183.024021 
L 210.022558 -179.490862 
L 211.398213 -180.220089 
L 212.773867 -180.919697 
L 214.149522 -181.983987 
L 215.525177 -186.688437 
L 216.900832 -185.714069 
L 218.276487 -178.73587 
L 219.652142 -184.119806 
L 221.027797 -180.280332 
L 222.403451 -180.203691 
L 223.779106 -180.357342 
L 225.154761 -182.101038 
L 226.530416 -182.494679 
L 227.906071 -185.148814 
L 229.281726 -185.315515 
L 230.657381 -181.993226 
L 232.033035 -181.665188 
L 233.40869 -182.264307 
L 234.784345 -188.918897 
L 236.16 -184.035092 
L 237.535655 -188.244914 
L 238.91131 -188.346822 
L 240.286965 -185.962735 
L 241.662619 -186.267891 
L 243.038274 -186.999313 
L 244.413929 -186.994427 
L 245.789584 -184.547796 
L 247.165239 -186.548607 
L 248.540894 -187.038559 
L 249.916549 -186.647812 
L 251.292203 -187.980504 
L 252.667858 -186.214115 
L 254.043513 -188.408316 
L 255.419168 -185.780658 
L 256.794823 -185.29141 
L 258.170478 -180.837922 
L 259.546133 -184.711391 
L 260.921787 -186.667023 
L 262.297442 -184.272192 
L 263.673097 -186.273733 
L 265.048752 -187.268309 
L 266.424407 -186.677096 
L 267.800062 -189.540124 
L 269.175716 -189.692446 
L 270.551371 -188.587506 
L 271.927026 -187.500188 
L 273.302681 -188.321854 
L 274.678336 -188.607665 
L 276.053991 -186.327646 
L 277.429646 -189.193841 
L 278.8053 -185.617485 
L 280.180955 -187.168307 
L 281.55661 -188.008478 
L 282.932265 -190.283798 
L 284.30792 -189.021376 
L 285.683575 -188.99878 
L 287.05923 -188.952365 
L 288.434884 -188.705223 
L 289.810539 -188.340835 
L 291.186194 -187.669264 
L 292.561849 -189.194328 
L 293.937504 -188.945774 
L 295.313159 -187.629 
L 296.688814 -186.243282 
L 298.064468 -188.223447 
L 299.440123 -190.840905 
L 300.815778 -188.548645 
L 302.191433 -191.952679 
L 303.567088 -190.792187 
L 304.942743 -187.617891 
L 306.318398 -188.96483 
L 307.694052 -191.959882 
L 309.069707 -189.981785 
L 310.445362 -190.804419 
L 311.821017 -191.491497 
L 313.196672 -189.233318 
L 314.572327 -192.738341 
L 315.947982 -192.471534 
L 317.323636 -191.194543 
L 318.699291 -190.564737 
L 320.074946 -189.645293 
L 321.450601 -190.808779 
L 322.826256 -191.174604 
L 324.201911 -191.708159 
L 325.577565 -189.626833 
L 326.95322 -192.915957 
L 328.328875 -189.397707 
L 329.70453 -191.867702 
L 331.080185 -190.748852 
L 332.45584 -191.633907 
L 333.831495 -191.465177 
L 335.207149 -191.011005 
L 336.582804 -191.970862 
L 337.958459 -192.00004 
L 339.334114 -192.335722 
L 340.709769 -194.805843 
L 342.085424 -194.028527 
L 343.461079 -193.624175 
L 344.836733 -189.998989 
L 346.212388 -193.021834 
L 347.588043 -191.964514 
L 348.963698 -191.721797 
L 350.339353 -193.345325 
L 351.715008 -192.8831 
L 353.090663 -191.275412 
L 354.466317 -192.006184 
L 355.841972 -191.114948 
L 357.217627 -194.180546 
L 358.593282 -194.271145 
L 359.968937 -193.904421 
L 361.344592 -194.007032 
L 362.720247 -194.414875 
L 364.095901 -192.83431 
L 365.471556 -193.323778 
L 366.847211 -194.190521 
L 368.222866 -193.977773 
L 369.598521 -194.95584 
L 370.974176 -194.088122 
L 372.349831 -193.576542 
L 373.725485 -195.69693 
L 375.10114 -194.653568 
L 376.476795 -194.24448 
L 377.85245 -194.395406 
L 379.228105 -194.563908 
L 380.60376 -193.446892 
L 381.979414 -194.735738 
L 383.355069 -193.147134 
L 384.730724 -194.384374 
L 386.106379 -196.160269 
L 387.482034 -196.336069 
L 388.857689 -195.681647 
L 390.233344 -194.235522 
L 391.608998 -194.023664 
L 392.984653 -197.02604 
L 394.360308 -199.17185 
L 395.735963 -197.863843 
L 397.111618 -201.377029 
L 398.487273 -205.269973 
L 398.487273 -220.705742 
L 398.487273 -220.705742 
L 397.111618 -217.683766 
L 395.735963 -212.632145 
L 394.360308 -214.262297 
L 392.984653 -211.058198 
L 391.608998 -208.803378 
L 390.233344 -208.611468 
L 388.857689 -210.12405 
L 387.482034 -210.10905 
L 386.106379 -210.365535 
L 384.730724 -209.294431 
L 383.355069 -208.40345 
L 381.979414 -208.430049 
L 380.60376 -208.069697 
L 379.228105 -209.575184 
L 377.85245 -208.552537 
L 376.476795 -209.37834 
L 375.10114 -209.028142 
L 373.725485 -209.753376 
L 372.349831 -208.781812 
L 370.974176 -208.10937 
L 369.598521 -209.104969 
L 368.222866 -208.546815 
L 366.847211 -209.137403 
L 365.471556 -208.056046 
L 364.095901 -207.434277 
L 362.720247 -209.146544 
L 361.344592 -208.321376 
L 359.968937 -208.309076 
L 358.593282 -208.471858 
L 357.217627 -207.482949 
L 355.841972 -206.136467 
L 354.466317 -207.213045 
L 353.090663 -205.993011 
L 351.715008 -208.025927 
L 350.339353 -207.712272 
L 348.963698 -207.060401 
L 347.588043 -206.163082 
L 346.212388 -206.968771 
L 344.836733 -205.958269 
L 343.461079 -208.993129 
L 342.085424 -207.811329 
L 340.709769 -208.384118 
L 339.334114 -207.225778 
L 337.958459 -206.892736 
L 336.582804 -206.936134 
L 335.207149 -206.191849 
L 333.831495 -206.812783 
L 332.45584 -206.126628 
L 331.080185 -206.487412 
L 329.70453 -206.088569 
L 328.328875 -205.438005 
L 326.95322 -207.057798 
L 325.577565 -205.174269 
L 324.201911 -206.81082 
L 322.826256 -206.675766 
L 321.450601 -207.379061 
L 320.074946 -206.096859 
L 318.699291 -206.920126 
L 317.323636 -206.542055 
L 315.947982 -207.268983 
L 314.572327 -208.255051 
L 313.196672 -206.799027 
L 311.821017 -207.520162 
L 310.445362 -206.990185 
L 309.069707 -207.086383 
L 307.694052 -208.324628 
L 306.318398 -205.881049 
L 304.942743 -204.855091 
L 303.567088 -207.405354 
L 302.191433 -208.411626 
L 300.815778 -207.410933 
L 299.440123 -207.900531 
L 298.064468 -206.380231 
L 296.688814 -205.935379 
L 295.313159 -205.845216 
L 293.937504 -206.81585 
L 292.561849 -207.043722 
L 291.186194 -205.908659 
L 289.810539 -206.225776 
L 288.434884 -207.10731 
L 287.05923 -207.799624 
L 285.683575 -206.868369 
L 284.30792 -206.974843 
L 282.932265 -207.438346 
L 281.55661 -205.231294 
L 280.180955 -205.038252 
L 278.8053 -205.72713 
L 277.429646 -206.732394 
L 276.053991 -205.64178 
L 274.678336 -207.135372 
L 273.302681 -206.257081 
L 271.927026 -208.050246 
L 270.551371 -205.87084 
L 269.175716 -208.0158 
L 267.800062 -208.387859 
L 266.424407 -205.970224 
L 265.048752 -205.949056 
L 263.673097 -206.016279 
L 262.297442 -205.113192 
L 260.921787 -205.591912 
L 259.546133 -205.489 
L 258.170478 -203.458646 
L 256.794823 -206.36867 
L 255.419168 -206.702355 
L 254.043513 -208.186636 
L 252.667858 -205.67481 
L 251.292203 -208.134597 
L 249.916549 -207.330664 
L 248.540894 -207.615837 
L 247.165239 -206.609555 
L 245.789584 -207.431938 
L 244.413929 -207.463816 
L 243.038274 -207.464911 
L 241.662619 -207.875087 
L 240.286965 -207.318382 
L 238.91131 -207.179647 
L 237.535655 -208.464178 
L 236.16 -206.983999 
L 234.784345 -208.912094 
L 233.40869 -204.577776 
L 232.033035 -204.788763 
L 230.657381 -206.053194 
L 229.281726 -207.167693 
L 227.906071 -208.701088 
L 226.530416 -207.327776 
L 225.154761 -206.66814 
L 223.779106 -205.915362 
L 222.403451 -204.58655 
L 221.027797 -205.538344 
L 219.652142 -209.163231 
L 218.276487 -205.924706 
L 216.900832 -210.572604 
L 215.525177 -211.690842 
L 214.149522 -208.539395 
L 212.773867 -207.553067 
L 211.398213 -208.72355 
L 210.022558 -206.123935 
L 208.646903 -208.863762 
L 207.271248 -204.253715 
L 205.895593 -208.28236 
L 204.519938 -210.781385 
L 203.144284 -208.299549 
L 201.768629 -208.107621 
L 200.392974 -206.006367 
L 199.017319 -207.850884 
L 197.641664 -209.867108 
L 196.266009 -212.676673 
L 194.890354 -211.521349 
L 193.5147 -208.331191 
L 192.139045 -213.941929 
L 190.76339 -211.142403 
L 189.387735 -216.290873 
L 188.01208 -217.448941 
L 186.636425 -218.633021 
L 185.26077 -215.474758 
L 183.885116 -216.006494 
L 182.509461 -214.622041 
L 181.133806 -211.386164 
L 179.758151 -217.459503 
L 178.382496 -216.993455 
L 177.006841 -216.626216 
L 175.631186 -221.052192 
L 174.255532 -222.7823 
L 172.879877 -220.057148 
L 171.504222 -216.653786 
L 170.128567 -216.981081 
L 168.752912 -214.335998 
L 167.377257 -217.830402 
L 166.001602 -218.363508 
L 164.625948 -219.854755 
L 163.250293 -222.6908 
L 161.874638 -219.016368 
L 160.498983 -222.88364 
L 159.123328 -221.518766 
L 157.747673 -221.375447 
L 156.372018 -223.824239 
L 154.996364 -219.046649 
L 153.620709 -218.883221 
L 152.245054 -223.042287 
L 150.869399 -223.687174 
L 149.493744 -216.365769 
L 148.118089 -220.644053 
L 146.742435 -219.07682 
L 145.36678 -226.400455 
L 143.991125 -226.858108 
L 142.61547 -222.920587 
L 141.239815 -224.785998 
L 139.86416 -224.206939 
L 138.488505 -229.401559 
L 137.112851 -221.797168 
L 135.737196 -221.147282 
L 134.361541 -225.680813 
L 132.985886 -226.646612 
L 131.610231 -228.070676 
L 130.234576 -236.063 
L 128.858921 -230.172964 
L 127.483267 -235.21439 
L 126.107612 -231.130309 
L 124.731957 -231.50858 
L 123.356302 -230.909638 
L 121.980647 -236.818373 
L 120.604992 -231.170482 
L 119.229337 -230.326691 
L 117.853683 -228.673032 
L 116.478028 -233.926959 
L 115.102373 -233.190073 
L 113.726718 -241.834758 
L 112.351063 -249.588212 
L 110.975408 -242.803948 
L 109.599753 -252.41283 
L 108.224099 -249.836396 
L 106.848444 -247.279794 
L 105.472789 -243.689959 
L 104.097134 -257.335805 
L 102.721479 -260.502277 
L 101.345824 -259.798018 
L 99.970169 -269.73247 
L 98.594515 -268.520909 
L 97.21886 -270.041471 
L 95.843205 -267.161996 
L 94.46755 -272.101144 
L 93.091895 -261.94234 
L 91.71624 -278.229222 
L 90.340586 -276.980968 
L 88.964931 -278.115986 
L 87.589276 -276.871804 
L 86.213621 -274.245396 
L 84.837966 -289.895216 
L 83.462311 -292.032 
L 82.086656 -286.989148 
L 80.711002 -289.028859 
L 79.335347 -289.039726 
z
" style="stroke: #e1632a; stroke-opacity: 0.2"/>
    </defs>
    <g clip-path="url(#p49bf15da6f)">
     <use xlink:href="#mafd00898c5" x="0" y="345.6" style="fill: #e1632a; fill-opacity: 0.2; stroke: #e1632a; stroke-opacity: 0.2"/>
    </g>
   </g>
   <g id="line2d_21">
    <path d="M 73.832727 166.012194 
L 75.208382 180.028105 
L 76.584037 174.77959 
L 77.959692 172.744412 
L 79.335347 182.505531 
L 80.711002 187.439767 
L 82.086656 201.437927 
L 83.462311 190.505571 
L 84.837966 182.781275 
L 86.213621 188.949971 
L 87.589276 182.950063 
L 88.964931 169.817867 
L 90.340586 164.098344 
L 91.71624 160.332136 
L 93.091895 173.496898 
L 94.46755 166.322998 
L 95.843205 166.504011 
L 97.21886 163.802386 
L 98.594515 178.51494 
L 99.970169 167.142256 
L 101.345824 142.300648 
L 102.721479 180.881985 
L 104.097134 173.252214 
L 105.472789 180.088059 
L 106.848444 184.67476 
L 108.224099 181.406152 
L 109.599753 182.760518 
L 110.975408 187.381916 
L 112.351063 183.614251 
L 113.726718 173.003438 
L 115.102373 217.329566 
L 116.478028 199.86133 
L 117.853683 187.562681 
L 119.229337 205.869791 
L 120.604992 189.680107 
L 121.980647 187.31682 
L 123.356302 191.544205 
L 124.731957 186.655186 
L 126.107612 189.035002 
L 127.483267 188.029908 
L 128.858921 186.801244 
L 130.234576 181.071411 
L 131.610231 197.297786 
L 132.985886 188.26019 
L 134.361541 192.629082 
L 135.737196 181.439844 
L 137.112851 184.031039 
L 138.488505 180.26036 
L 139.86416 191.762165 
L 141.239815 185.672129 
L 142.61547 189.870449 
L 143.991125 197.940457 
L 145.36678 196.008448 
L 148.118089 195.154614 
L 149.493744 196.695325 
L 150.869399 197.250632 
L 152.245054 197.054052 
L 153.620709 197.436674 
L 154.996364 206.950497 
L 156.372018 198.737802 
L 157.747673 194.359689 
L 159.123328 198.143569 
L 160.498983 191.078731 
L 161.874638 190.012835 
L 163.250293 192.70921 
L 164.625948 194.989875 
L 166.001602 191.48307 
L 167.377257 186.923251 
L 168.752912 189.115281 
L 170.128567 183.7323 
L 171.504222 186.158979 
L 172.879877 185.577189 
L 174.255532 181.154278 
L 175.631186 180.954775 
L 177.006841 183.624507 
L 178.382496 185.675889 
L 179.758151 183.728466 
L 181.133806 180.604185 
L 182.509461 178.243062 
L 183.885116 187.642251 
L 185.26077 182.291447 
L 188.01208 185.340283 
L 189.387735 180.586976 
L 190.76339 180.45226 
L 192.139045 176.172561 
L 193.5147 175.787636 
L 194.890354 177.623605 
L 196.266009 180.259298 
L 197.641664 179.090196 
L 199.017319 185.24717 
L 200.392974 178.225551 
L 201.768629 176.048953 
L 203.144284 179.626824 
L 204.519938 176.572471 
L 205.895593 181.00854 
L 207.271248 182.796964 
L 208.646903 180.463423 
L 210.022558 180.050433 
L 211.398213 178.820242 
L 212.773867 174.360179 
L 214.149522 179.610099 
L 215.525177 179.457008 
L 216.900832 176.370097 
L 219.652142 173.34668 
L 221.027797 174.236299 
L 222.403451 173.129511 
L 223.779106 173.400431 
L 225.154761 175.624185 
L 226.530416 175.197221 
L 227.906071 175.364991 
L 229.281726 176.073269 
L 230.657381 173.945867 
L 232.033035 175.694519 
L 233.40869 175.484998 
L 234.784345 175.470415 
L 237.535655 177.506881 
L 238.91131 175.857294 
L 240.286965 174.749489 
L 241.662619 175.575189 
L 243.038274 174.971639 
L 244.413929 173.176381 
L 245.789584 176.479087 
L 247.165239 178.069133 
L 248.540894 177.426249 
L 249.916549 181.642298 
L 251.292203 178.85621 
L 252.667858 179.010243 
L 254.043513 178.390895 
L 255.419168 176.361776 
L 256.794823 176.241664 
L 258.170478 176.968539 
L 259.546133 179.228603 
L 260.921787 177.605375 
L 263.673097 176.917657 
L 265.048752 177.117862 
L 266.424407 172.457593 
L 267.800062 175.880354 
L 269.175716 175.262151 
L 270.551371 174.057035 
L 271.927026 168.56035 
L 273.302681 172.59704 
L 274.678336 172.262099 
L 276.053991 170.275601 
L 277.429646 172.72415 
L 278.8053 172.114237 
L 280.180955 172.344127 
L 284.30792 169.32184 
L 285.683575 173.227282 
L 287.05923 172.436234 
L 288.434884 172.98144 
L 289.810539 172.908736 
L 291.186194 174.649237 
L 292.561849 174.455488 
L 293.937504 172.701954 
L 295.313159 172.016106 
L 296.688814 173.385087 
L 298.064468 172.016783 
L 299.440123 169.613427 
L 300.815778 168.01749 
L 302.191433 168.926573 
L 303.567088 168.327929 
L 304.942743 167.141321 
L 306.318398 167.588373 
L 307.694052 165.085402 
L 309.069707 165.119772 
L 310.445362 164.895519 
L 311.821017 165.855006 
L 313.196672 164.704774 
L 314.572327 167.224647 
L 315.947982 168.657783 
L 317.323636 165.477243 
L 318.699291 165.56904 
L 320.074946 164.915855 
L 321.450601 167.665339 
L 322.826256 163.505382 
L 324.201911 164.289042 
L 325.577565 165.215769 
L 326.95322 164.194018 
L 328.328875 164.316823 
L 329.70453 162.697093 
L 331.080185 163.370457 
L 332.45584 161.443482 
L 333.831495 163.099441 
L 335.207149 163.301967 
L 336.582804 164.532383 
L 337.958459 163.939131 
L 339.334114 164.383342 
L 340.709769 165.433935 
L 342.085424 165.268605 
L 343.461079 166.418336 
L 344.836733 162.048984 
L 346.212388 163.73198 
L 347.588043 165.123111 
L 348.963698 163.600813 
L 350.339353 162.819442 
L 351.715008 164.103542 
L 353.090663 159.702146 
L 354.466317 161.462757 
L 355.841972 160.11848 
L 357.217627 161.473173 
L 359.968937 160.104626 
L 361.344592 160.072773 
L 362.720247 157.612734 
L 365.471556 158.843194 
L 366.847211 156.862536 
L 368.222866 156.163531 
L 369.598521 154.713148 
L 370.974176 152.85275 
L 372.349831 153.395805 
L 375.10114 152.836204 
L 376.476795 152.792201 
L 377.85245 152.165246 
L 379.228105 153.151519 
L 380.60376 150.796371 
L 381.979414 149.617391 
L 383.355069 150.522544 
L 384.730724 148.509013 
L 386.106379 148.535136 
L 388.857689 145.838607 
L 390.233344 144.406112 
L 391.608998 143.431252 
L 392.984653 141.78509 
L 394.360308 140.791913 
L 395.735963 141.110469 
L 397.111618 140.57315 
L 398.487273 133.392349 
L 398.487273 133.392349 
" clip-path="url(#p49bf15da6f)" style="fill: none; stroke: #7fbc38; stroke-width: 1.5; stroke-linecap: round"/>
   </g>
   <g id="line2d_22">
    <path d="M 76.584037 62.108008 
L 77.959692 57.330596 
L 79.335347 100.470866 
L 80.711002 110.305771 
L 82.086656 112.375837 
L 83.462311 92.250792 
L 84.837966 109.369518 
L 86.213621 97.564683 
L 87.589276 97.320163 
L 88.964931 107.405895 
L 90.340586 109.595755 
L 91.71624 118.202497 
L 93.091895 124.537093 
L 94.46755 118.367445 
L 95.843205 110.621323 
L 97.21886 104.089605 
L 98.594515 112.025535 
L 99.970169 115.357772 
L 101.345824 117.570411 
L 102.721479 124.051232 
L 104.097134 118.3342 
L 105.472789 130.524699 
L 106.848444 126.260187 
L 108.224099 119.586395 
L 109.599753 118.888739 
L 110.975408 130.144763 
L 112.351063 121.802027 
L 113.726718 127.537951 
L 115.102373 135.25818 
L 116.478028 133.244299 
L 117.853683 141.722782 
L 119.229337 141.32116 
L 120.604992 135.966254 
L 121.980647 133.070262 
L 123.356302 138.404857 
L 124.731957 136.933072 
L 126.107612 137.374642 
L 127.483267 131.780853 
L 128.858921 137.322251 
L 130.234576 129.63206 
L 131.610231 138.241886 
L 132.985886 140.135259 
L 134.361541 137.394888 
L 135.737196 144.504029 
L 137.112851 142.147148 
L 138.488505 133.776766 
L 141.239815 139.864603 
L 142.61547 139.507805 
L 143.991125 136.076975 
L 145.36678 138.411917 
L 146.742435 148.313081 
L 148.118089 142.46514 
L 149.493744 150.817786 
L 150.869399 139.237346 
L 152.245054 138.621154 
L 153.620709 144.41366 
L 154.996364 145.701202 
L 156.372018 139.975096 
L 157.747673 143.963689 
L 159.123328 140.507595 
L 160.498983 137.912196 
L 161.874638 144.87145 
L 163.250293 140.177972 
L 164.625948 139.889103 
L 166.001602 144.09803 
L 167.377257 143.161679 
L 168.752912 148.75323 
L 170.128567 143.473959 
L 171.504222 144.629662 
L 172.879877 142.099243 
L 174.255532 138.143834 
L 175.631186 138.562605 
L 177.006841 143.156943 
L 178.382496 142.030198 
L 179.758151 144.226076 
L 181.133806 151.893505 
L 182.509461 145.426127 
L 183.885116 146.539791 
L 185.26077 145.472249 
L 186.636425 142.144483 
L 189.387735 143.669135 
L 190.76339 148.837778 
L 192.139045 148.303908 
L 193.5147 152.684953 
L 194.890354 149.346383 
L 196.266009 147.214143 
L 199.017319 153.125432 
L 200.392974 152.568411 
L 201.768629 149.895019 
L 203.144284 151.269307 
L 204.519938 149.077908 
L 205.895593 151.933005 
L 207.271248 155.85954 
L 208.646903 150.109095 
L 210.022558 152.349979 
L 211.398213 150.841872 
L 212.773867 150.95061 
L 214.149522 150.091379 
L 215.525177 146.560296 
L 216.900832 147.232819 
L 218.276487 152.21375 
L 219.652142 148.883805 
L 221.027797 152.423511 
L 222.403451 152.790748 
L 223.779106 152.789984 
L 225.154761 150.268869 
L 226.530416 151.148449 
L 227.906071 148.658328 
L 229.281726 149.032473 
L 230.657381 151.003796 
L 232.033035 152.325971 
L 233.40869 152.471042 
L 234.784345 146.900997 
L 236.16 149.374842 
L 237.535655 147.067321 
L 238.91131 147.223002 
L 240.286965 148.428009 
L 241.662619 147.898641 
L 243.038274 148.563055 
L 244.413929 148.267849 
L 245.789584 149.15126 
L 247.165239 148.980846 
L 248.540894 147.936976 
L 249.916549 148.998474 
L 251.292203 147.392548 
L 252.667858 149.249419 
L 254.043513 147.160691 
L 255.419168 149.69259 
L 256.794823 149.573638 
L 258.170478 152.662462 
L 259.546133 150.326675 
L 260.921787 148.814022 
L 262.297442 150.652107 
L 263.673097 149.046408 
L 265.048752 149.205627 
L 266.424407 148.815985 
L 267.800062 146.573689 
L 269.175716 146.29646 
L 270.551371 147.904651 
L 271.927026 147.530403 
L 273.302681 148.036328 
L 274.678336 147.277479 
L 276.053991 149.46374 
L 277.429646 147.999272 
L 278.8053 149.861441 
L 281.55661 149.000046 
L 282.932265 146.789149 
L 284.30792 147.360994 
L 285.683575 147.752686 
L 287.05923 147.385501 
L 288.434884 147.17969 
L 289.810539 148.705729 
L 291.186194 148.89502 
L 292.561849 147.119515 
L 293.937504 147.666681 
L 295.313159 148.499659 
L 296.688814 149.038843 
L 298.064468 148.048585 
L 299.440123 146.083931 
L 300.815778 147.392985 
L 302.191433 145.347439 
L 303.567088 146.174918 
L 304.942743 149.145157 
L 306.318398 147.739047 
L 307.694052 145.270974 
L 309.069707 147.245498 
L 310.445362 146.331118 
L 311.821017 145.836047 
L 313.196672 147.39505 
L 314.572327 145.031074 
L 315.947982 146.002938 
L 317.323636 146.428785 
L 318.699291 146.619137 
L 320.074946 147.477083 
L 321.450601 146.264987 
L 322.826256 146.610396 
L 324.201911 146.193273 
L 325.577565 148.079097 
L 326.95322 145.750911 
L 328.328875 148.080479 
L 329.70453 146.709032 
L 331.080185 147.282397 
L 332.45584 146.575748 
L 333.831495 146.314356 
L 335.207149 146.877595 
L 336.582804 146.17242 
L 337.958459 145.962163 
L 339.334114 146.087318 
L 340.709769 144.075029 
L 342.085424 144.512479 
L 343.461079 144.18398 
L 344.836733 147.579081 
L 346.212388 145.351179 
L 347.588043 146.327794 
L 348.963698 146.107348 
L 350.339353 145.10441 
L 351.715008 144.61676 
L 353.090663 146.376146 
L 354.466317 145.587196 
L 355.841972 146.529056 
L 357.217627 144.652739 
L 358.593282 144.514924 
L 359.968937 144.578389 
L 361.344592 144.056678 
L 362.720247 143.864026 
L 364.095901 145.449292 
L 365.471556 144.410102 
L 366.847211 144.026055 
L 368.222866 144.418238 
L 369.598521 143.32735 
L 370.974176 144.356829 
L 372.349831 143.85052 
L 373.725485 142.672174 
L 375.10114 144.11642 
L 376.476795 143.993117 
L 377.85245 144.061275 
L 379.228105 143.724943 
L 380.60376 144.661744 
L 381.979414 143.799499 
L 383.355069 144.887627 
L 384.730724 143.32468 
L 386.106379 142.294814 
L 387.482034 142.087134 
L 388.857689 142.851051 
L 390.233344 143.788511 
L 391.608998 144.402503 
L 392.984653 141.542494 
L 394.360308 138.162854 
L 395.735963 140.006759 
L 397.111618 135.485111 
L 398.487273 132.320892 
L 398.487273 132.320892 
" clip-path="url(#p49bf15da6f)" style="fill: none; stroke: #e1632a; stroke-width: 1.5; stroke-linecap: round"/>
   </g>
   <g id="line2d_23"/>
   <g id="line2d_24"/>
   <g id="patch_3">
    <path d="M 57.6 307.584 
L 57.6 41.472 
" style="fill: none; stroke: #262626; stroke-width: 1.25; stroke-linejoin: miter; stroke-linecap: square"/>
   </g>
   <g id="patch_4">
    <path d="M 414.72 307.584 
L 414.72 41.472 
" style="fill: none; stroke: #262626; stroke-width: 1.25; stroke-linejoin: miter; stroke-linecap: square"/>
   </g>
   <g id="patch_5">
    <path d="M 57.6 307.584 
L 414.72 307.584 
" style="fill: none; stroke: #262626; stroke-width: 1.25; stroke-linejoin: miter; stroke-linecap: square"/>
   </g>
   <g id="patch_6">
    <path d="M 57.6 41.472 
L 414.72 41.472 
" style="fill: none; stroke: #262626; stroke-width: 1.25; stroke-linejoin: miter; stroke-linecap: square"/>
   </g>
   <g id="text_13">
    <!-- Mating cells' eccentricity over time -->
    <g style="fill: #262626" transform="translate(-114.79625 33.15325) scale(0.4 -0.4)">
     <defs>
      <path id="DejaVuSans-4d" d="M 628 4666 
L 1569 4666 
L 2759 1491 
L 3956 4666 
L 4897 4666 
L 4897 0 
L 4281 0 
L 4281 4097 
L 3078 897 
L 2444 897 
L 1241 4097 
L 1241 0 
L 628 0 
L 628 4666 
z
" transform="scale(0.015625)"/>
      <path id="DejaVuSans-61" d="M 2194 1759 
Q 1497 1759 1228 1600 
Q 959 1441 959 1056 
Q 959 750 1161 570 
Q 1363 391 1709 391 
Q 2188 391 2477 730 
Q 2766 1069 2766 1631 
L 2766 1759 
L 2194 1759 
z
M 3341 1997 
L 3341 0 
L 2766 0 
L 2766 531 
Q 2569 213 2275 61 
Q 1981 -91 1556 -91 
Q 1019 -91 701 211 
Q 384 513 384 1019 
Q 384 1609 779 1909 
Q 1175 2209 1959 2209 
L 2766 2209 
L 2766 2266 
Q 2766 2663 2505 2880 
Q 2244 3097 1772 3097 
Q 1472 3097 1187 3025 
Q 903 2953 641 2809 
L 641 3341 
Q 956 3463 1253 3523 
Q 1550 3584 1831 3584 
Q 2591 3584 2966 3190 
Q 3341 2797 3341 1997 
z
" transform="scale(0.015625)"/>
      <path id="DejaVuSans-67" d="M 2906 1791 
Q 2906 2416 2648 2759 
Q 2391 3103 1925 3103 
Q 1463 3103 1205 2759 
Q 947 2416 947 1791 
Q 947 1169 1205 825 
Q 1463 481 1925 481 
Q 2391 481 2648 825 
Q 2906 1169 2906 1791 
z
M 3481 434 
Q 3481 -459 3084 -895 
Q 2688 -1331 1869 -1331 
Q 1566 -1331 1297 -1286 
Q 1028 -1241 775 -1147 
L 775 -588 
Q 1028 -725 1275 -790 
Q 1522 -856 1778 -856 
Q 2344 -856 2625 -561 
Q 2906 -266 2906 331 
L 2906 616 
Q 2728 306 2450 153 
Q 2172 0 1784 0 
Q 1141 0 747 490 
Q 353 981 353 1791 
Q 353 2603 747 3093 
Q 1141 3584 1784 3584 
Q 2172 3584 2450 3431 
Q 2728 3278 2906 2969 
L 2906 3500 
L 3481 3500 
L 3481 434 
z
" transform="scale(0.015625)"/>
      <path id="DejaVuSans-6c" d="M 603 4863 
L 1178 4863 
L 1178 0 
L 603 0 
L 603 4863 
z
" transform="scale(0.015625)"/>
      <path id="DejaVuSans-73" d="M 2834 3397 
L 2834 2853 
Q 2591 2978 2328 3040 
Q 2066 3103 1784 3103 
Q 1356 3103 1142 2972 
Q 928 2841 928 2578 
Q 928 2378 1081 2264 
Q 1234 2150 1697 2047 
L 1894 2003 
Q 2506 1872 2764 1633 
Q 3022 1394 3022 966 
Q 3022 478 2636 193 
Q 2250 -91 1575 -91 
Q 1294 -91 989 -36 
Q 684 19 347 128 
L 347 722 
Q 666 556 975 473 
Q 1284 391 1588 391 
Q 1994 391 2212 530 
Q 2431 669 2431 922 
Q 2431 1156 2273 1281 
Q 2116 1406 1581 1522 
L 1381 1569 
Q 847 1681 609 1914 
Q 372 2147 372 2553 
Q 372 3047 722 3315 
Q 1072 3584 1716 3584 
Q 2034 3584 2315 3537 
Q 2597 3491 2834 3397 
z
" transform="scale(0.015625)"/>
      <path id="DejaVuSans-27" d="M 1147 4666 
L 1147 2931 
L 616 2931 
L 616 4666 
L 1147 4666 
z
" transform="scale(0.015625)"/>
      <path id="DejaVuSans-76" d="M 191 3500 
L 800 3500 
L 1894 563 
L 2988 3500 
L 3597 3500 
L 2284 0 
L 1503 0 
L 191 3500 
z
" transform="scale(0.015625)"/>
     </defs>
     <use xlink:href="#DejaVuSans-4d"/>
     <use xlink:href="#DejaVuSans-61" x="86.279297"/>
     <use xlink:href="#DejaVuSans-74" x="147.558594"/>
     <use xlink:href="#DejaVuSans-69" x="186.767578"/>
     <use xlink:href="#DejaVuSans-6e" x="214.550781"/>
     <use xlink:href="#DejaVuSans-67" x="277.929688"/>
     <use xlink:href="#DejaVuSans-20" x="341.40625"/>
     <use xlink:href="#DejaVuSans-63" x="373.193359"/>
     <use xlink:href="#DejaVuSans-65" x="428.173828"/>
     <use xlink:href="#DejaVuSans-6c" x="489.697266"/>
     <use xlink:href="#DejaVuSans-6c" x="517.480469"/>
     <use xlink:href="#DejaVuSans-73" x="545.263672"/>
     <use xlink:href="#DejaVuSans-27" x="597.363281"/>
     <use xlink:href="#DejaVuSans-20" x="624.853516"/>
     <use xlink:href="#DejaVuSans-65" x="656.640625"/>
     <use xlink:href="#DejaVuSans-63" x="718.164062"/>
     <use xlink:href="#DejaVuSans-63" x="773.144531"/>
     <use xlink:href="#DejaVuSans-65" x="828.125"/>
     <use xlink:href="#DejaVuSans-6e" x="889.648438"/>
     <use xlink:href="#DejaVuSans-74" x="953.027344"/>
     <use xlink:href="#DejaVuSans-72" x="992.236328"/>
     <use xlink:href="#DejaVuSans-69" x="1033.349609"/>
     <use xlink:href="#DejaVuSans-63" x="1061.132812"/>
     <use xlink:href="#DejaVuSans-69" x="1116.113281"/>
     <use xlink:href="#DejaVuSans-74" x="1143.896484"/>
     <use xlink:href="#DejaVuSans-79" x="1183.105469"/>
     <use xlink:href="#DejaVuSans-20" x="1242.285156"/>
     <use xlink:href="#DejaVuSans-6f" x="1274.072266"/>
     <use xlink:href="#DejaVuSans-76" x="1335.253906"/>
     <use xlink:href="#DejaVuSans-65" x="1394.433594"/>
     <use xlink:href="#DejaVuSans-72" x="1455.957031"/>
     <use xlink:href="#DejaVuSans-20" x="1497.070312"/>
     <use xlink:href="#DejaVuSans-74" x="1528.857422"/>
     <use xlink:href="#DejaVuSans-69" x="1568.066406"/>
     <use xlink:href="#DejaVuSans-6d" x="1595.849609"/>
     <use xlink:href="#DejaVuSans-65" x="1693.261719"/>
    </g>
   </g>
   <g id="legend_1">
    <g id="patch_7">
     <path d="M 361.105313 99.677625 
L 407.02 99.677625 
Q 409.22 99.677625 409.22 97.477625 
L 409.22 49.172 
Q 409.22 46.972 407.02 46.972 
L 361.105313 46.972 
Q 358.905313 46.972 358.905313 49.172 
L 358.905313 97.477625 
Q 358.905313 99.677625 361.105313 99.677625 
z
" style="fill: #ffffff; opacity: 0.8; stroke: #cccccc; stroke-linejoin: miter"/>
    </g>
    <g id="text_14">
     <!-- t -->
     <g style="fill: #262626" transform="translate(381.710469 60.490125) scale(0.12 -0.12)">
      <use xlink:href="#DejaVuSans-74"/>
     </g>
    </g>
    <g id="line2d_25">
     <path d="M 363.305313 72.994031 
L 374.305313 72.994031 
L 385.305313 72.994031 
" style="fill: none; stroke: #7fbc38; stroke-width: 1.5; stroke-linecap: round"/>
    </g>
    <g id="text_15">
     <!-- p -->
     <g style="fill: #262626" transform="translate(394.105313 76.844031) scale(0.11 -0.11)">
      <use xlink:href="#DejaVuSans-70"/>
     </g>
    </g>
    <g id="line2d_26">
     <path d="M 363.305313 89.139969 
L 374.305313 89.139969 
L 385.305313 89.139969 
" style="fill: none; stroke: #e1632a; stroke-width: 1.5; stroke-linecap: round"/>
    </g>
    <g id="text_16">
     <!-- m -->
     <g style="fill: #262626" transform="translate(394.105313 92.989969) scale(0.11 -0.11)">
      <use xlink:href="#DejaVuSans-6d"/>
     </g>
    </g>
   </g>
  </g>
 </g>
 <defs>
  <clipPath id="p49bf15da6f">
   <rect x="57.6" y="41.472" width="357.12" height="266.112"/>
  </clipPath>
 </defs>
</svg>
