<?xml version="1.0" encoding="utf-8" standalone="no"?>
<!DOCTYPE svg PUBLIC "-//W3C//DTD SVG 1.1//EN"
  "http://www.w3.org/Graphics/SVG/1.1/DTD/svg11.dtd">
<svg xmlns:xlink="http://www.w3.org/1999/xlink" width="460.8pt" height="345.6pt" viewBox="0 0 460.8 345.6" xmlns="http://www.w3.org/2000/svg" version="1.1">
 <metadata>
  <rdf:RDF xmlns:dc="http://purl.org/dc/elements/1.1/" xmlns:cc="http://creativecommons.org/ns#" xmlns:rdf="http://www.w3.org/1999/02/22-rdf-syntax-ns#">
   <cc:Work>
    <dc:type rdf:resource="http://purl.org/dc/dcmitype/StillImage"/>
    <dc:date>2024-04-14T22:12:26.288618</dc:date>
    <dc:format>image/svg+xml</dc:format>
    <dc:creator>
     <cc:Agent>
      <dc:title>Matplotlib v3.8.0, https://matplotlib.org/</dc:title>
     </cc:Agent>
    </dc:creator>
   </cc:Work>
  </rdf:RDF>
 </metadata>
 <defs>
  <style type="text/css">*{stroke-linejoin: round; stroke-linecap: butt}</style>
 </defs>
 <g id="figure_1">
  <g id="patch_1">
   <path d="M 0 345.6 
L 460.8 345.6 
L 460.8 0 
L 0 0 
z
" style="fill: #ffffff"/>
  </g>
  <g id="axes_1">
   <g id="patch_2">
    <path d="M 57.6 307.584 
L 414.72 307.584 
L 414.72 41.472 
L 57.6 41.472 
z
" style="fill: #ffffff"/>
   </g>
   <g id="matplotlib.axis_1">
    <g id="xtick_1">
     <g id="line2d_1">
      <path d="M 71.653838 307.584 
L 71.653838 41.472 
" clip-path="url(#p88b4d22ba6)" style="fill: none; stroke: #cccccc; stroke-linecap: round"/>
     </g>
     <g id="line2d_2">
      <defs>
       <path id="md8503e9195" d="M 0 0 
L 0 6 
" style="stroke: #262626; stroke-width: 1.25"/>
      </defs>
      <g>
       <use xlink:href="#md8503e9195" x="71.653838" y="307.584" style="fill: #262626; stroke: #262626; stroke-width: 1.25"/>
      </g>
     </g>
     <g id="text_1">
      <!-- -750 -->
      <g style="fill: #262626" transform="translate(59.171416 325.442281) scale(0.11 -0.11)">
       <defs>
        <path id="DejaVuSans-2d" d="M 313 2009 
L 1997 2009 
L 1997 1497 
L 313 1497 
L 313 2009 
z
" transform="scale(0.015625)"/>
        <path id="DejaVuSans-37" d="M 525 4666 
L 3525 4666 
L 3525 4397 
L 1831 0 
L 1172 0 
L 2766 4134 
L 525 4134 
L 525 4666 
z
" transform="scale(0.015625)"/>
        <path id="DejaVuSans-35" d="M 691 4666 
L 3169 4666 
L 3169 4134 
L 1269 4134 
L 1269 2991 
Q 1406 3038 1543 3061 
Q 1681 3084 1819 3084 
Q 2600 3084 3056 2656 
Q 3513 2228 3513 1497 
Q 3513 744 3044 326 
Q 2575 -91 1722 -91 
Q 1428 -91 1123 -41 
Q 819 9 494 109 
L 494 744 
Q 775 591 1075 516 
Q 1375 441 1709 441 
Q 2250 441 2565 725 
Q 2881 1009 2881 1497 
Q 2881 1984 2565 2268 
Q 2250 2553 1709 2553 
Q 1456 2553 1204 2497 
Q 953 2441 691 2322 
L 691 4666 
z
" transform="scale(0.015625)"/>
        <path id="DejaVuSans-30" d="M 2034 4250 
Q 1547 4250 1301 3770 
Q 1056 3291 1056 2328 
Q 1056 1369 1301 889 
Q 1547 409 2034 409 
Q 2525 409 2770 889 
Q 3016 1369 3016 2328 
Q 3016 3291 2770 3770 
Q 2525 4250 2034 4250 
z
M 2034 4750 
Q 2819 4750 3233 4129 
Q 3647 3509 3647 2328 
Q 3647 1150 3233 529 
Q 2819 -91 2034 -91 
Q 1250 -91 836 529 
Q 422 1150 422 2328 
Q 422 3509 836 4129 
Q 1250 4750 2034 4750 
z
" transform="scale(0.015625)"/>
       </defs>
       <use xlink:href="#DejaVuSans-2d"/>
       <use xlink:href="#DejaVuSans-37" x="36.083984"/>
       <use xlink:href="#DejaVuSans-35" x="99.707031"/>
       <use xlink:href="#DejaVuSans-30" x="163.330078"/>
      </g>
     </g>
    </g>
    <g id="xtick_2">
     <g id="line2d_3">
      <path d="M 180.598316 307.584 
L 180.598316 41.472 
" clip-path="url(#p88b4d22ba6)" style="fill: none; stroke: #cccccc; stroke-linecap: round"/>
     </g>
     <g id="line2d_4">
      <g>
       <use xlink:href="#md8503e9195" x="180.598316" y="307.584" style="fill: #262626; stroke: #262626; stroke-width: 1.25"/>
      </g>
     </g>
     <g id="text_2">
      <!-- -500 -->
      <g style="fill: #262626" transform="translate(168.115894 325.442281) scale(0.11 -0.11)">
       <use xlink:href="#DejaVuSans-2d"/>
       <use xlink:href="#DejaVuSans-35" x="36.083984"/>
       <use xlink:href="#DejaVuSans-30" x="99.707031"/>
       <use xlink:href="#DejaVuSans-30" x="163.330078"/>
      </g>
     </g>
    </g>
    <g id="xtick_3">
     <g id="line2d_5">
      <path d="M 289.542794 307.584 
L 289.542794 41.472 
" clip-path="url(#p88b4d22ba6)" style="fill: none; stroke: #cccccc; stroke-linecap: round"/>
     </g>
     <g id="line2d_6">
      <g>
       <use xlink:href="#md8503e9195" x="289.542794" y="307.584" style="fill: #262626; stroke: #262626; stroke-width: 1.25"/>
      </g>
     </g>
     <g id="text_3">
      <!-- -250 -->
      <g style="fill: #262626" transform="translate(277.060373 325.442281) scale(0.11 -0.11)">
       <defs>
        <path id="DejaVuSans-32" d="M 1228 531 
L 3431 531 
L 3431 0 
L 469 0 
L 469 531 
Q 828 903 1448 1529 
Q 2069 2156 2228 2338 
Q 2531 2678 2651 2914 
Q 2772 3150 2772 3378 
Q 2772 3750 2511 3984 
Q 2250 4219 1831 4219 
Q 1534 4219 1204 4116 
Q 875 4013 500 3803 
L 500 4441 
Q 881 4594 1212 4672 
Q 1544 4750 1819 4750 
Q 2544 4750 2975 4387 
Q 3406 4025 3406 3419 
Q 3406 3131 3298 2873 
Q 3191 2616 2906 2266 
Q 2828 2175 2409 1742 
Q 1991 1309 1228 531 
z
" transform="scale(0.015625)"/>
       </defs>
       <use xlink:href="#DejaVuSans-2d"/>
       <use xlink:href="#DejaVuSans-32" x="36.083984"/>
       <use xlink:href="#DejaVuSans-35" x="99.707031"/>
       <use xlink:href="#DejaVuSans-30" x="163.330078"/>
      </g>
     </g>
    </g>
    <g id="xtick_4">
     <g id="line2d_7">
      <path d="M 398.487273 307.584 
L 398.487273 41.472 
" clip-path="url(#p88b4d22ba6)" style="fill: none; stroke: #cccccc; stroke-linecap: round"/>
     </g>
     <g id="line2d_8">
      <g>
       <use xlink:href="#md8503e9195" x="398.487273" y="307.584" style="fill: #262626; stroke: #262626; stroke-width: 1.25"/>
      </g>
     </g>
     <g id="text_4">
      <!-- 0 -->
      <g style="fill: #262626" transform="translate(394.987898 325.442281) scale(0.11 -0.11)">
       <use xlink:href="#DejaVuSans-30"/>
      </g>
     </g>
    </g>
    <g id="text_5">
     <!-- Time point (min) -->
     <g style="fill: #262626" transform="translate(186.368437 340.848062) scale(0.12 -0.12)">
      <defs>
       <path id="DejaVuSans-54" d="M -19 4666 
L 3928 4666 
L 3928 4134 
L 2272 4134 
L 2272 0 
L 1638 0 
L 1638 4134 
L -19 4134 
L -19 4666 
z
" transform="scale(0.015625)"/>
       <path id="DejaVuSans-69" d="M 603 3500 
L 1178 3500 
L 1178 0 
L 603 0 
L 603 3500 
z
M 603 4863 
L 1178 4863 
L 1178 4134 
L 603 4134 
L 603 4863 
z
" transform="scale(0.015625)"/>
       <path id="DejaVuSans-6d" d="M 3328 2828 
Q 3544 3216 3844 3400 
Q 4144 3584 4550 3584 
Q 5097 3584 5394 3201 
Q 5691 2819 5691 2113 
L 5691 0 
L 5113 0 
L 5113 2094 
Q 5113 2597 4934 2840 
Q 4756 3084 4391 3084 
Q 3944 3084 3684 2787 
Q 3425 2491 3425 1978 
L 3425 0 
L 2847 0 
L 2847 2094 
Q 2847 2600 2669 2842 
Q 2491 3084 2119 3084 
Q 1678 3084 1418 2786 
Q 1159 2488 1159 1978 
L 1159 0 
L 581 0 
L 581 3500 
L 1159 3500 
L 1159 2956 
Q 1356 3278 1631 3431 
Q 1906 3584 2284 3584 
Q 2666 3584 2933 3390 
Q 3200 3197 3328 2828 
z
" transform="scale(0.015625)"/>
       <path id="DejaVuSans-65" d="M 3597 1894 
L 3597 1613 
L 953 1613 
Q 991 1019 1311 708 
Q 1631 397 2203 397 
Q 2534 397 2845 478 
Q 3156 559 3463 722 
L 3463 178 
Q 3153 47 2828 -22 
Q 2503 -91 2169 -91 
Q 1331 -91 842 396 
Q 353 884 353 1716 
Q 353 2575 817 3079 
Q 1281 3584 2069 3584 
Q 2775 3584 3186 3129 
Q 3597 2675 3597 1894 
z
M 3022 2063 
Q 3016 2534 2758 2815 
Q 2500 3097 2075 3097 
Q 1594 3097 1305 2825 
Q 1016 2553 972 2059 
L 3022 2063 
z
" transform="scale(0.015625)"/>
       <path id="DejaVuSans-20" transform="scale(0.015625)"/>
       <path id="DejaVuSans-70" d="M 1159 525 
L 1159 -1331 
L 581 -1331 
L 581 3500 
L 1159 3500 
L 1159 2969 
Q 1341 3281 1617 3432 
Q 1894 3584 2278 3584 
Q 2916 3584 3314 3078 
Q 3713 2572 3713 1747 
Q 3713 922 3314 415 
Q 2916 -91 2278 -91 
Q 1894 -91 1617 61 
Q 1341 213 1159 525 
z
M 3116 1747 
Q 3116 2381 2855 2742 
Q 2594 3103 2138 3103 
Q 1681 3103 1420 2742 
Q 1159 2381 1159 1747 
Q 1159 1113 1420 752 
Q 1681 391 2138 391 
Q 2594 391 2855 752 
Q 3116 1113 3116 1747 
z
" transform="scale(0.015625)"/>
       <path id="DejaVuSans-6f" d="M 1959 3097 
Q 1497 3097 1228 2736 
Q 959 2375 959 1747 
Q 959 1119 1226 758 
Q 1494 397 1959 397 
Q 2419 397 2687 759 
Q 2956 1122 2956 1747 
Q 2956 2369 2687 2733 
Q 2419 3097 1959 3097 
z
M 1959 3584 
Q 2709 3584 3137 3096 
Q 3566 2609 3566 1747 
Q 3566 888 3137 398 
Q 2709 -91 1959 -91 
Q 1206 -91 779 398 
Q 353 888 353 1747 
Q 353 2609 779 3096 
Q 1206 3584 1959 3584 
z
" transform="scale(0.015625)"/>
       <path id="DejaVuSans-6e" d="M 3513 2113 
L 3513 0 
L 2938 0 
L 2938 2094 
Q 2938 2591 2744 2837 
Q 2550 3084 2163 3084 
Q 1697 3084 1428 2787 
Q 1159 2491 1159 1978 
L 1159 0 
L 581 0 
L 581 3500 
L 1159 3500 
L 1159 2956 
Q 1366 3272 1645 3428 
Q 1925 3584 2291 3584 
Q 2894 3584 3203 3211 
Q 3513 2838 3513 2113 
z
" transform="scale(0.015625)"/>
       <path id="DejaVuSans-74" d="M 1172 4494 
L 1172 3500 
L 2356 3500 
L 2356 3053 
L 1172 3053 
L 1172 1153 
Q 1172 725 1289 603 
Q 1406 481 1766 481 
L 2356 481 
L 2356 0 
L 1766 0 
Q 1100 0 847 248 
Q 594 497 594 1153 
L 594 3053 
L 172 3053 
L 172 3500 
L 594 3500 
L 594 4494 
L 1172 4494 
z
" transform="scale(0.015625)"/>
       <path id="DejaVuSans-28" d="M 1984 4856 
Q 1566 4138 1362 3434 
Q 1159 2731 1159 2009 
Q 1159 1288 1364 580 
Q 1569 -128 1984 -844 
L 1484 -844 
Q 1016 -109 783 600 
Q 550 1309 550 2009 
Q 550 2706 781 3412 
Q 1013 4119 1484 4856 
L 1984 4856 
z
" transform="scale(0.015625)"/>
       <path id="DejaVuSans-29" d="M 513 4856 
L 1013 4856 
Q 1481 4119 1714 3412 
Q 1947 2706 1947 2009 
Q 1947 1309 1714 600 
Q 1481 -109 1013 -844 
L 513 -844 
Q 928 -128 1133 580 
Q 1338 1288 1338 2009 
Q 1338 2731 1133 3434 
Q 928 4138 513 4856 
z
" transform="scale(0.015625)"/>
      </defs>
      <use xlink:href="#DejaVuSans-54"/>
      <use xlink:href="#DejaVuSans-69" x="57.958984"/>
      <use xlink:href="#DejaVuSans-6d" x="85.742188"/>
      <use xlink:href="#DejaVuSans-65" x="183.154297"/>
      <use xlink:href="#DejaVuSans-20" x="244.677734"/>
      <use xlink:href="#DejaVuSans-70" x="276.464844"/>
      <use xlink:href="#DejaVuSans-6f" x="339.941406"/>
      <use xlink:href="#DejaVuSans-69" x="401.123047"/>
      <use xlink:href="#DejaVuSans-6e" x="428.90625"/>
      <use xlink:href="#DejaVuSans-74" x="492.285156"/>
      <use xlink:href="#DejaVuSans-20" x="531.494141"/>
      <use xlink:href="#DejaVuSans-28" x="563.28125"/>
      <use xlink:href="#DejaVuSans-6d" x="602.294922"/>
      <use xlink:href="#DejaVuSans-69" x="699.707031"/>
      <use xlink:href="#DejaVuSans-6e" x="727.490234"/>
      <use xlink:href="#DejaVuSans-29" x="790.869141"/>
     </g>
    </g>
   </g>
   <g id="matplotlib.axis_2">
    <g id="ytick_1">
     <g id="line2d_9">
      <path d="M 57.6 305.846421 
L 414.72 305.846421 
" clip-path="url(#p88b4d22ba6)" style="fill: none; stroke: #cccccc; stroke-linecap: round"/>
     </g>
     <g id="line2d_10">
      <defs>
       <path id="mbfe0b25d9c" d="M 0 0 
L -6 0 
" style="stroke: #262626; stroke-width: 1.25"/>
      </defs>
      <g>
       <use xlink:href="#mbfe0b25d9c" x="57.6" y="305.846421" style="fill: #262626; stroke: #262626; stroke-width: 1.25"/>
      </g>
     </g>
     <g id="text_6">
      <!-- 0.54 -->
      <g style="fill: #262626" transform="translate(23.607813 310.025562) scale(0.11 -0.11)">
       <defs>
        <path id="DejaVuSans-2e" d="M 684 794 
L 1344 794 
L 1344 0 
L 684 0 
L 684 794 
z
" transform="scale(0.015625)"/>
        <path id="DejaVuSans-34" d="M 2419 4116 
L 825 1625 
L 2419 1625 
L 2419 4116 
z
M 2253 4666 
L 3047 4666 
L 3047 1625 
L 3713 1625 
L 3713 1100 
L 3047 1100 
L 3047 0 
L 2419 0 
L 2419 1100 
L 313 1100 
L 313 1709 
L 2253 4666 
z
" transform="scale(0.015625)"/>
       </defs>
       <use xlink:href="#DejaVuSans-30"/>
       <use xlink:href="#DejaVuSans-2e" x="63.623047"/>
       <use xlink:href="#DejaVuSans-35" x="95.410156"/>
       <use xlink:href="#DejaVuSans-34" x="159.033203"/>
      </g>
     </g>
    </g>
    <g id="ytick_2">
     <g id="line2d_11">
      <path d="M 57.6 276.256178 
L 414.72 276.256178 
" clip-path="url(#p88b4d22ba6)" style="fill: none; stroke: #cccccc; stroke-linecap: round"/>
     </g>
     <g id="line2d_12">
      <g>
       <use xlink:href="#mbfe0b25d9c" x="57.6" y="276.256178" style="fill: #262626; stroke: #262626; stroke-width: 1.25"/>
      </g>
     </g>
     <g id="text_7">
      <!-- 0.56 -->
      <g style="fill: #262626" transform="translate(23.607813 280.435319) scale(0.11 -0.11)">
       <defs>
        <path id="DejaVuSans-36" d="M 2113 2584 
Q 1688 2584 1439 2293 
Q 1191 2003 1191 1497 
Q 1191 994 1439 701 
Q 1688 409 2113 409 
Q 2538 409 2786 701 
Q 3034 994 3034 1497 
Q 3034 2003 2786 2293 
Q 2538 2584 2113 2584 
z
M 3366 4563 
L 3366 3988 
Q 3128 4100 2886 4159 
Q 2644 4219 2406 4219 
Q 1781 4219 1451 3797 
Q 1122 3375 1075 2522 
Q 1259 2794 1537 2939 
Q 1816 3084 2150 3084 
Q 2853 3084 3261 2657 
Q 3669 2231 3669 1497 
Q 3669 778 3244 343 
Q 2819 -91 2113 -91 
Q 1303 -91 875 529 
Q 447 1150 447 2328 
Q 447 3434 972 4092 
Q 1497 4750 2381 4750 
Q 2619 4750 2861 4703 
Q 3103 4656 3366 4563 
z
" transform="scale(0.015625)"/>
       </defs>
       <use xlink:href="#DejaVuSans-30"/>
       <use xlink:href="#DejaVuSans-2e" x="63.623047"/>
       <use xlink:href="#DejaVuSans-35" x="95.410156"/>
       <use xlink:href="#DejaVuSans-36" x="159.033203"/>
      </g>
     </g>
    </g>
    <g id="ytick_3">
     <g id="line2d_13">
      <path d="M 57.6 246.665935 
L 414.72 246.665935 
" clip-path="url(#p88b4d22ba6)" style="fill: none; stroke: #cccccc; stroke-linecap: round"/>
     </g>
     <g id="line2d_14">
      <g>
       <use xlink:href="#mbfe0b25d9c" x="57.6" y="246.665935" style="fill: #262626; stroke: #262626; stroke-width: 1.25"/>
      </g>
     </g>
     <g id="text_8">
      <!-- 0.58 -->
      <g style="fill: #262626" transform="translate(23.607813 250.845075) scale(0.11 -0.11)">
       <defs>
        <path id="DejaVuSans-38" d="M 2034 2216 
Q 1584 2216 1326 1975 
Q 1069 1734 1069 1313 
Q 1069 891 1326 650 
Q 1584 409 2034 409 
Q 2484 409 2743 651 
Q 3003 894 3003 1313 
Q 3003 1734 2745 1975 
Q 2488 2216 2034 2216 
z
M 1403 2484 
Q 997 2584 770 2862 
Q 544 3141 544 3541 
Q 544 4100 942 4425 
Q 1341 4750 2034 4750 
Q 2731 4750 3128 4425 
Q 3525 4100 3525 3541 
Q 3525 3141 3298 2862 
Q 3072 2584 2669 2484 
Q 3125 2378 3379 2068 
Q 3634 1759 3634 1313 
Q 3634 634 3220 271 
Q 2806 -91 2034 -91 
Q 1263 -91 848 271 
Q 434 634 434 1313 
Q 434 1759 690 2068 
Q 947 2378 1403 2484 
z
M 1172 3481 
Q 1172 3119 1398 2916 
Q 1625 2713 2034 2713 
Q 2441 2713 2670 2916 
Q 2900 3119 2900 3481 
Q 2900 3844 2670 4047 
Q 2441 4250 2034 4250 
Q 1625 4250 1398 4047 
Q 1172 3844 1172 3481 
z
" transform="scale(0.015625)"/>
       </defs>
       <use xlink:href="#DejaVuSans-30"/>
       <use xlink:href="#DejaVuSans-2e" x="63.623047"/>
       <use xlink:href="#DejaVuSans-35" x="95.410156"/>
       <use xlink:href="#DejaVuSans-38" x="159.033203"/>
      </g>
     </g>
    </g>
    <g id="ytick_4">
     <g id="line2d_15">
      <path d="M 57.6 217.075691 
L 414.72 217.075691 
" clip-path="url(#p88b4d22ba6)" style="fill: none; stroke: #cccccc; stroke-linecap: round"/>
     </g>
     <g id="line2d_16">
      <g>
       <use xlink:href="#mbfe0b25d9c" x="57.6" y="217.075691" style="fill: #262626; stroke: #262626; stroke-width: 1.25"/>
      </g>
     </g>
     <g id="text_9">
      <!-- 0.60 -->
      <g style="fill: #262626" transform="translate(23.607813 221.254832) scale(0.11 -0.11)">
       <use xlink:href="#DejaVuSans-30"/>
       <use xlink:href="#DejaVuSans-2e" x="63.623047"/>
       <use xlink:href="#DejaVuSans-36" x="95.410156"/>
       <use xlink:href="#DejaVuSans-30" x="159.033203"/>
      </g>
     </g>
    </g>
    <g id="ytick_5">
     <g id="line2d_17">
      <path d="M 57.6 187.485448 
L 414.72 187.485448 
" clip-path="url(#p88b4d22ba6)" style="fill: none; stroke: #cccccc; stroke-linecap: round"/>
     </g>
     <g id="line2d_18">
      <g>
       <use xlink:href="#mbfe0b25d9c" x="57.6" y="187.485448" style="fill: #262626; stroke: #262626; stroke-width: 1.25"/>
      </g>
     </g>
     <g id="text_10">
      <!-- 0.62 -->
      <g style="fill: #262626" transform="translate(23.607813 191.664589) scale(0.11 -0.11)">
       <use xlink:href="#DejaVuSans-30"/>
       <use xlink:href="#DejaVuSans-2e" x="63.623047"/>
       <use xlink:href="#DejaVuSans-36" x="95.410156"/>
       <use xlink:href="#DejaVuSans-32" x="159.033203"/>
      </g>
     </g>
    </g>
    <g id="ytick_6">
     <g id="line2d_19">
      <path d="M 57.6 157.895205 
L 414.72 157.895205 
" clip-path="url(#p88b4d22ba6)" style="fill: none; stroke: #cccccc; stroke-linecap: round"/>
     </g>
     <g id="line2d_20">
      <g>
       <use xlink:href="#mbfe0b25d9c" x="57.6" y="157.895205" style="fill: #262626; stroke: #262626; stroke-width: 1.25"/>
      </g>
     </g>
     <g id="text_11">
      <!-- 0.64 -->
      <g style="fill: #262626" transform="translate(23.607813 162.074345) scale(0.11 -0.11)">
       <use xlink:href="#DejaVuSans-30"/>
       <use xlink:href="#DejaVuSans-2e" x="63.623047"/>
       <use xlink:href="#DejaVuSans-36" x="95.410156"/>
       <use xlink:href="#DejaVuSans-34" x="159.033203"/>
      </g>
     </g>
    </g>
    <g id="ytick_7">
     <g id="line2d_21">
      <path d="M 57.6 128.304962 
L 414.72 128.304962 
" clip-path="url(#p88b4d22ba6)" style="fill: none; stroke: #cccccc; stroke-linecap: round"/>
     </g>
     <g id="line2d_22">
      <g>
       <use xlink:href="#mbfe0b25d9c" x="57.6" y="128.304962" style="fill: #262626; stroke: #262626; stroke-width: 1.25"/>
      </g>
     </g>
     <g id="text_12">
      <!-- 0.66 -->
      <g style="fill: #262626" transform="translate(23.607813 132.484102) scale(0.11 -0.11)">
       <use xlink:href="#DejaVuSans-30"/>
       <use xlink:href="#DejaVuSans-2e" x="63.623047"/>
       <use xlink:href="#DejaVuSans-36" x="95.410156"/>
       <use xlink:href="#DejaVuSans-36" x="159.033203"/>
      </g>
     </g>
    </g>
    <g id="ytick_8">
     <g id="line2d_23">
      <path d="M 57.6 98.714718 
L 414.72 98.714718 
" clip-path="url(#p88b4d22ba6)" style="fill: none; stroke: #cccccc; stroke-linecap: round"/>
     </g>
     <g id="line2d_24">
      <g>
       <use xlink:href="#mbfe0b25d9c" x="57.6" y="98.714718" style="fill: #262626; stroke: #262626; stroke-width: 1.25"/>
      </g>
     </g>
     <g id="text_13">
      <!-- 0.68 -->
      <g style="fill: #262626" transform="translate(23.607813 102.893859) scale(0.11 -0.11)">
       <use xlink:href="#DejaVuSans-30"/>
       <use xlink:href="#DejaVuSans-2e" x="63.623047"/>
       <use xlink:href="#DejaVuSans-36" x="95.410156"/>
       <use xlink:href="#DejaVuSans-38" x="159.033203"/>
      </g>
     </g>
    </g>
    <g id="ytick_9">
     <g id="line2d_25">
      <path d="M 57.6 69.124475 
L 414.72 69.124475 
" clip-path="url(#p88b4d22ba6)" style="fill: none; stroke: #cccccc; stroke-linecap: round"/>
     </g>
     <g id="line2d_26">
      <g>
       <use xlink:href="#mbfe0b25d9c" x="57.6" y="69.124475" style="fill: #262626; stroke: #262626; stroke-width: 1.25"/>
      </g>
     </g>
     <g id="text_14">
      <!-- 0.70 -->
      <g style="fill: #262626" transform="translate(23.607813 73.303616) scale(0.11 -0.11)">
       <use xlink:href="#DejaVuSans-30"/>
       <use xlink:href="#DejaVuSans-2e" x="63.623047"/>
       <use xlink:href="#DejaVuSans-37" x="95.410156"/>
       <use xlink:href="#DejaVuSans-30" x="159.033203"/>
      </g>
     </g>
    </g>
    <g id="text_15">
     <!-- Eccentricity -->
     <g style="fill: #262626" transform="translate(17.112187 209.76675) rotate(-90) scale(0.12 -0.12)">
      <defs>
       <path id="DejaVuSans-45" d="M 628 4666 
L 3578 4666 
L 3578 4134 
L 1259 4134 
L 1259 2753 
L 3481 2753 
L 3481 2222 
L 1259 2222 
L 1259 531 
L 3634 531 
L 3634 0 
L 628 0 
L 628 4666 
z
" transform="scale(0.015625)"/>
       <path id="DejaVuSans-63" d="M 3122 3366 
L 3122 2828 
Q 2878 2963 2633 3030 
Q 2388 3097 2138 3097 
Q 1578 3097 1268 2742 
Q 959 2388 959 1747 
Q 959 1106 1268 751 
Q 1578 397 2138 397 
Q 2388 397 2633 464 
Q 2878 531 3122 666 
L 3122 134 
Q 2881 22 2623 -34 
Q 2366 -91 2075 -91 
Q 1284 -91 818 406 
Q 353 903 353 1747 
Q 353 2603 823 3093 
Q 1294 3584 2113 3584 
Q 2378 3584 2631 3529 
Q 2884 3475 3122 3366 
z
" transform="scale(0.015625)"/>
       <path id="DejaVuSans-72" d="M 2631 2963 
Q 2534 3019 2420 3045 
Q 2306 3072 2169 3072 
Q 1681 3072 1420 2755 
Q 1159 2438 1159 1844 
L 1159 0 
L 581 0 
L 581 3500 
L 1159 3500 
L 1159 2956 
Q 1341 3275 1631 3429 
Q 1922 3584 2338 3584 
Q 2397 3584 2469 3576 
Q 2541 3569 2628 3553 
L 2631 2963 
z
" transform="scale(0.015625)"/>
       <path id="DejaVuSans-79" d="M 2059 -325 
Q 1816 -950 1584 -1140 
Q 1353 -1331 966 -1331 
L 506 -1331 
L 506 -850 
L 844 -850 
Q 1081 -850 1212 -737 
Q 1344 -625 1503 -206 
L 1606 56 
L 191 3500 
L 800 3500 
L 1894 763 
L 2988 3500 
L 3597 3500 
L 2059 -325 
z
" transform="scale(0.015625)"/>
      </defs>
      <use xlink:href="#DejaVuSans-45"/>
      <use xlink:href="#DejaVuSans-63" x="63.183594"/>
      <use xlink:href="#DejaVuSans-63" x="118.164062"/>
      <use xlink:href="#DejaVuSans-65" x="173.144531"/>
      <use xlink:href="#DejaVuSans-6e" x="234.667969"/>
      <use xlink:href="#DejaVuSans-74" x="298.046875"/>
      <use xlink:href="#DejaVuSans-72" x="337.255859"/>
      <use xlink:href="#DejaVuSans-69" x="378.369141"/>
      <use xlink:href="#DejaVuSans-63" x="406.152344"/>
      <use xlink:href="#DejaVuSans-69" x="461.132812"/>
      <use xlink:href="#DejaVuSans-74" x="488.916016"/>
      <use xlink:href="#DejaVuSans-79" x="528.125"/>
     </g>
    </g>
   </g>
   <g id="PolyCollection_1">
    <defs>
     <path id="m0dc5c7aeb9" d="M 73.832727 -170.355243 
L 73.832727 -82.161548 
L 76.011617 -74.931895 
L 78.190506 -63.987197 
L 80.369396 -70.937321 
L 82.548286 -50.112 
L 84.727175 -82.687283 
L 86.906065 -85.644586 
L 89.084954 -72.792602 
L 91.263844 -81.407745 
L 93.442733 -62.770215 
L 95.621623 -50.516537 
L 97.800513 -60.323531 
L 99.979402 -71.876422 
L 102.158292 -76.053765 
L 104.337181 -90.355639 
L 106.516071 -71.320132 
L 108.69496 -68.192964 
L 110.87385 -83.286774 
L 113.052739 -83.436768 
L 115.231629 -97.689968 
L 117.410519 -89.690535 
L 119.589408 -97.59805 
L 121.768298 -88.525448 
L 123.947187 -87.830001 
L 126.126077 -83.518918 
L 128.304966 -83.540558 
L 130.483856 -84.702937 
L 132.662746 -93.978735 
L 134.841635 -86.171514 
L 137.020525 -86.02243 
L 139.199414 -91.784077 
L 141.378304 -84.984472 
L 143.557193 -85.966654 
L 145.736083 -88.100313 
L 147.914973 -89.960863 
L 150.093862 -87.49569 
L 152.272752 -91.36209 
L 154.451641 -102.541996 
L 156.630531 -88.582819 
L 158.80942 -78.088134 
L 160.98831 -80.700742 
L 163.1672 -68.901121 
L 165.346089 -76.967517 
L 167.524979 -79.080566 
L 169.703868 -83.522707 
L 171.882758 -87.371604 
L 174.061647 -86.924391 
L 176.240537 -83.751532 
L 178.419426 -76.403496 
L 180.598316 -82.571095 
L 182.777206 -81.511948 
L 184.956095 -80.71338 
L 187.134985 -79.468368 
L 189.313874 -101.244106 
L 191.492764 -87.412631 
L 193.671653 -94.089795 
L 195.850543 -96.324379 
L 198.029433 -113.823773 
L 200.208322 -100.432043 
L 202.387212 -105.421232 
L 204.566101 -110.245815 
L 206.744991 -101.675297 
L 208.92388 -104.301408 
L 211.10277 -99.387992 
L 213.28166 -104.388437 
L 215.460549 -110.191682 
L 217.639439 -115.090462 
L 219.818328 -101.247836 
L 221.997218 -104.773519 
L 224.176107 -102.750083 
L 226.354997 -103.641361 
L 228.533887 -96.65498 
L 230.712776 -97.211575 
L 232.891666 -104.28539 
L 235.070555 -105.081983 
L 237.249445 -103.435605 
L 239.428334 -107.303364 
L 241.607224 -113.740616 
L 243.786113 -121.304534 
L 245.965003 -115.602978 
L 248.143893 -119.332535 
L 250.322782 -125.156674 
L 252.501672 -120.930216 
L 254.680561 -132.541435 
L 256.859451 -128.561117 
L 259.03834 -131.406628 
L 261.21723 -127.670105 
L 263.39612 -132.75712 
L 265.575009 -125.420213 
L 267.753899 -118.759601 
L 269.932788 -130.880114 
L 272.111678 -129.142682 
L 274.290567 -133.558681 
L 276.469457 -121.420848 
L 278.648347 -136.885745 
L 280.827236 -131.956242 
L 283.006126 -128.555593 
L 285.185015 -132.774235 
L 287.363905 -136.174564 
L 289.542794 -138.749888 
L 291.721684 -135.849482 
L 293.900574 -143.077699 
L 296.079463 -139.016774 
L 298.258353 -138.041145 
L 300.437242 -135.242809 
L 302.616132 -137.535167 
L 304.795021 -133.713535 
L 306.973911 -129.544667 
L 309.1528 -127.963925 
L 311.33169 -123.708504 
L 313.51058 -141.541165 
L 315.689469 -135.634788 
L 317.868359 -129.080212 
L 320.047248 -137.354767 
L 322.226138 -140.80281 
L 324.405027 -133.264302 
L 326.583917 -149.00604 
L 328.762807 -142.538095 
L 330.941696 -146.750365 
L 333.120586 -143.484925 
L 335.299475 -144.421984 
L 337.478365 -149.135652 
L 339.657254 -148.456931 
L 341.836144 -157.113658 
L 344.015034 -154.821493 
L 346.193923 -149.136776 
L 348.372813 -160.726349 
L 350.551702 -160.702156 
L 352.730592 -167.374344 
L 354.909481 -171.118238 
L 357.088371 -166.515469 
L 359.267261 -169.528678 
L 361.44615 -171.351724 
L 363.62504 -169.135029 
L 365.803929 -172.323369 
L 367.982819 -167.564051 
L 370.161708 -177.659674 
L 372.340598 -180.152034 
L 374.519487 -175.257387 
L 376.698377 -184.070076 
L 378.877267 -182.113407 
L 381.056156 -186.98579 
L 383.235046 -190.801454 
L 385.413935 -194.382108 
L 387.592825 -198.062566 
L 389.771714 -200.559934 
L 391.950604 -204.41109 
L 394.129494 -201.231717 
L 396.308383 -201.344312 
L 398.487273 -222.127695 
L 398.487273 -292.032 
L 398.487273 -292.032 
L 396.308383 -271.157488 
L 394.129494 -266.113978 
L 391.950604 -264.294971 
L 389.771714 -262.301953 
L 387.592825 -256.381036 
L 385.413935 -251.477776 
L 383.235046 -249.475956 
L 381.056156 -242.09895 
L 378.877267 -239.476908 
L 376.698377 -238.955046 
L 374.519487 -231.911821 
L 372.340598 -233.244847 
L 370.161708 -230.976114 
L 367.982819 -223.581596 
L 365.803929 -226.481715 
L 363.62504 -224.1563 
L 361.44615 -221.821932 
L 359.267261 -222.912313 
L 357.088371 -220.587694 
L 354.909481 -222.216173 
L 352.730592 -218.240117 
L 350.551702 -213.589402 
L 348.372813 -210.842477 
L 346.193923 -206.911074 
L 344.015034 -209.046438 
L 341.836144 -208.064756 
L 339.657254 -200.039877 
L 337.478365 -200.578077 
L 335.299475 -196.26668 
L 333.120586 -195.966506 
L 330.941696 -200.321802 
L 328.762807 -197.861542 
L 326.583917 -200.913066 
L 324.405027 -186.932101 
L 322.226138 -192.504306 
L 320.047248 -191.363627 
L 317.868359 -187.884988 
L 315.689469 -189.47257 
L 313.51058 -194.9289 
L 311.33169 -182.897145 
L 309.1528 -186.219126 
L 306.973911 -185.416818 
L 304.795021 -187.716097 
L 302.616132 -189.800216 
L 300.437242 -186.474485 
L 298.258353 -192.104166 
L 296.079463 -191.68291 
L 293.900574 -195.091003 
L 291.721684 -190.079778 
L 289.542794 -192.845454 
L 287.363905 -184.607866 
L 285.185015 -186.980228 
L 283.006126 -187.982777 
L 280.827236 -188.955683 
L 278.648347 -191.42002 
L 276.469457 -179.148894 
L 274.290567 -184.656666 
L 272.111678 -185.185217 
L 269.932788 -186.156586 
L 267.753899 -175.745409 
L 265.575009 -178.892119 
L 263.39612 -186.574451 
L 261.21723 -182.709056 
L 259.03834 -190.01784 
L 256.859451 -185.788985 
L 254.680561 -187.113985 
L 252.501672 -179.726764 
L 250.322782 -180.552905 
L 248.143893 -176.327852 
L 245.965003 -175.276891 
L 243.786113 -177.571958 
L 241.607224 -173.140647 
L 239.428334 -166.357287 
L 237.249445 -163.209101 
L 235.070555 -166.837185 
L 232.891666 -164.525136 
L 230.712776 -160.16976 
L 228.533887 -160.103516 
L 226.354997 -165.356975 
L 224.176107 -164.675804 
L 221.997218 -163.97731 
L 219.818328 -167.541402 
L 217.639439 -175.966199 
L 215.460549 -170.326823 
L 213.28166 -170.230615 
L 211.10277 -172.494034 
L 208.92388 -170.028896 
L 206.744991 -166.855106 
L 204.566101 -174.93179 
L 202.387212 -168.785601 
L 200.208322 -168.402874 
L 198.029433 -178.82175 
L 195.850543 -165.605212 
L 193.671653 -159.703614 
L 191.492764 -161.063265 
L 189.313874 -169.351914 
L 187.134985 -155.996269 
L 184.956095 -158.53553 
L 182.777206 -155.040259 
L 180.598316 -152.228723 
L 178.419426 -152.240843 
L 176.240537 -156.810905 
L 174.061647 -158.835486 
L 171.882758 -156.317793 
L 169.703868 -152.227979 
L 167.524979 -152.483352 
L 165.346089 -151.383865 
L 163.1672 -146.020149 
L 160.98831 -155.244156 
L 158.80942 -155.397235 
L 156.630531 -157.836573 
L 154.451641 -167.610591 
L 152.272752 -164.266458 
L 150.093862 -160.494794 
L 147.914973 -164.562162 
L 145.736083 -161.301502 
L 143.557193 -153.76544 
L 141.378304 -158.978849 
L 139.199414 -159.918935 
L 137.020525 -159.945096 
L 134.841635 -163.430782 
L 132.662746 -165.522487 
L 130.483856 -160.204856 
L 128.304966 -166.403712 
L 126.126077 -167.245685 
L 123.947187 -163.08994 
L 121.768298 -173.538344 
L 119.589408 -172.248539 
L 117.410519 -165.269625 
L 115.231629 -165.56117 
L 113.052739 -171.334234 
L 110.87385 -160.664026 
L 108.69496 -157.285731 
L 106.516071 -150.159058 
L 104.337181 -172.225699 
L 102.158292 -157.508837 
L 99.979402 -146.853 
L 97.800513 -151.95684 
L 95.621623 -148.762929 
L 93.442733 -152.489979 
L 91.263844 -158.231375 
L 89.084954 -153.163593 
L 86.906065 -163.130215 
L 84.727175 -151.569017 
L 82.548286 -141.825906 
L 80.369396 -160.847815 
L 78.190506 -154.756701 
L 76.011617 -162.879333 
L 73.832727 -170.355243 
z
" style="stroke: #7fbc38; stroke-opacity: 0.2"/>
    </defs>
    <g clip-path="url(#p88b4d22ba6)">
     <use xlink:href="#m0dc5c7aeb9" x="0" y="345.6" style="fill: #7fbc38; fill-opacity: 0.2; stroke: #7fbc38; stroke-opacity: 0.2"/>
    </g>
   </g>
   <g id="PolyCollection_2">
    <defs>
     <path id="m82c74b77d7" d="M 73.832727 -247.324988 
L 73.832727 -144.337375 
L 76.011617 -160.21154 
L 78.190506 -172.918306 
L 80.369396 -158.417435 
L 82.548286 -140.068126 
L 84.727175 -152.581289 
L 86.906065 -165.163363 
L 89.084954 -157.286458 
L 91.263844 -162.723538 
L 93.442733 -155.339999 
L 95.621623 -139.951908 
L 97.800513 -166.184976 
L 99.979402 -154.709309 
L 102.158292 -158.076665 
L 104.337181 -157.691325 
L 106.516071 -160.514496 
L 108.69496 -178.526369 
L 110.87385 -175.701084 
L 113.052739 -154.127723 
L 115.231629 -165.822219 
L 117.410519 -154.980553 
L 119.589408 -156.788023 
L 121.768298 -156.74985 
L 123.947187 -163.804852 
L 126.126077 -166.684518 
L 128.304966 -172.570904 
L 130.483856 -173.906422 
L 132.662746 -167.235662 
L 134.841635 -159.936582 
L 137.020525 -161.864874 
L 139.199414 -185.442531 
L 141.378304 -172.795787 
L 143.557193 -182.287215 
L 145.736083 -181.128494 
L 147.914973 -178.723991 
L 150.093862 -178.818598 
L 152.272752 -179.183261 
L 154.451641 -180.970908 
L 156.630531 -174.444944 
L 158.80942 -177.146856 
L 160.98831 -182.504963 
L 163.1672 -175.702007 
L 165.346089 -181.69594 
L 167.524979 -176.930454 
L 169.703868 -184.862179 
L 171.882758 -174.805683 
L 174.061647 -174.636787 
L 176.240537 -162.506141 
L 178.419426 -171.042668 
L 180.598316 -180.153964 
L 182.777206 -168.238863 
L 184.956095 -177.305804 
L 187.134985 -177.297243 
L 189.313874 -180.613262 
L 191.492764 -185.505478 
L 193.671653 -190.359001 
L 195.850543 -181.9959 
L 198.029433 -182.418053 
L 200.208322 -182.03583 
L 202.387212 -189.381935 
L 204.566101 -177.257079 
L 206.744991 -184.177768 
L 208.92388 -175.976527 
L 211.10277 -181.290546 
L 213.28166 -179.85227 
L 215.460549 -189.62255 
L 217.639439 -183.284798 
L 219.818328 -186.570162 
L 221.997218 -182.864354 
L 224.176107 -186.034673 
L 226.354997 -183.747812 
L 228.533887 -179.831265 
L 230.712776 -187.251336 
L 232.891666 -184.132646 
L 235.070555 -182.73696 
L 237.249445 -181.334277 
L 239.428334 -183.9407 
L 241.607224 -191.318811 
L 243.786113 -184.67891 
L 245.965003 -194.352242 
L 248.143893 -191.869003 
L 250.322782 -181.741632 
L 252.501672 -185.552713 
L 254.680561 -193.215518 
L 256.859451 -188.177841 
L 259.03834 -191.214898 
L 261.21723 -195.143988 
L 263.39612 -188.594505 
L 265.575009 -195.32023 
L 267.753899 -193.977967 
L 269.932788 -192.671472 
L 272.111678 -191.728996 
L 274.290567 -190.088328 
L 276.469457 -191.955336 
L 278.648347 -189.165609 
L 280.827236 -192.543615 
L 283.006126 -188.881704 
L 285.185015 -195.438553 
L 287.363905 -185.40332 
L 289.542794 -194.128861 
L 291.721684 -190.535791 
L 293.900574 -195.295181 
L 296.079463 -192.697816 
L 298.258353 -191.542924 
L 300.437242 -195.211253 
L 302.616132 -197.833589 
L 304.795021 -193.327262 
L 306.973911 -201.323523 
L 309.1528 -199.953616 
L 311.33169 -201.667012 
L 313.51058 -188.716728 
L 315.689469 -196.24718 
L 317.868359 -194.883196 
L 320.047248 -193.586475 
L 322.226138 -198.115376 
L 324.405027 -197.693547 
L 326.583917 -194.15394 
L 328.762807 -195.150763 
L 330.941696 -191.667015 
L 333.120586 -200.10418 
L 335.299475 -201.274501 
L 337.478365 -199.933386 
L 339.657254 -202.54216 
L 341.836144 -202.415966 
L 344.015034 -198.595423 
L 346.193923 -201.112404 
L 348.372813 -203.043677 
L 350.551702 -201.465424 
L 352.730592 -203.556115 
L 354.909481 -201.51989 
L 357.088371 -203.880592 
L 359.267261 -206.109641 
L 361.44615 -200.203222 
L 363.62504 -200.758753 
L 365.803929 -200.693719 
L 367.982819 -202.260697 
L 370.161708 -200.171113 
L 372.340598 -204.411768 
L 374.519487 -198.109691 
L 376.698377 -203.806707 
L 378.877267 -208.766753 
L 381.056156 -210.023682 
L 383.235046 -207.105293 
L 385.413935 -203.276464 
L 387.592825 -199.164921 
L 389.771714 -210.276082 
L 391.950604 -220.375177 
L 394.129494 -213.128228 
L 396.308383 -226.941565 
L 398.487273 -236.690316 
L 398.487273 -286.555283 
L 398.487273 -286.555283 
L 396.308383 -276.705739 
L 394.129494 -261.777846 
L 391.950604 -268.517152 
L 389.771714 -255.959248 
L 387.592825 -249.186505 
L 385.413935 -247.420697 
L 383.235046 -250.817975 
L 381.056156 -252.434314 
L 378.877267 -251.411174 
L 376.698377 -249.730296 
L 374.519487 -244.308087 
L 372.340598 -247.088226 
L 370.161708 -246.06371 
L 367.982819 -247.817972 
L 365.803929 -247.793248 
L 363.62504 -249.336567 
L 361.44615 -247.636521 
L 359.267261 -251.366875 
L 357.088371 -248.43016 
L 354.909481 -246.552499 
L 352.730592 -248.130288 
L 350.551702 -247.450098 
L 348.372813 -248.728703 
L 346.193923 -247.046971 
L 344.015034 -243.263216 
L 341.836144 -248.25027 
L 339.657254 -248.936752 
L 337.478365 -245.328046 
L 335.299475 -246.262265 
L 333.120586 -245.545597 
L 330.941696 -241.768095 
L 328.762807 -244.077336 
L 326.583917 -240.657773 
L 324.405027 -245.940796 
L 322.226138 -244.987721 
L 320.047248 -241.68512 
L 317.868359 -240.865572 
L 315.689469 -244.12791 
L 313.51058 -239.02574 
L 311.33169 -246.371381 
L 309.1528 -246.783037 
L 306.973911 -246.691939 
L 304.795021 -242.952028 
L 302.616132 -242.562526 
L 300.437242 -241.997044 
L 298.258353 -238.246972 
L 296.079463 -240.446488 
L 293.900574 -239.066347 
L 291.721684 -239.320477 
L 289.542794 -238.399964 
L 287.363905 -236.845946 
L 285.185015 -244.216857 
L 283.006126 -234.964888 
L 280.827236 -243.070933 
L 278.648347 -241.792753 
L 276.469457 -243.876055 
L 274.290567 -238.555369 
L 272.111678 -241.491606 
L 269.932788 -242.302017 
L 267.753899 -241.373631 
L 265.575009 -245.565918 
L 263.39612 -240.663362 
L 261.21723 -245.286951 
L 259.03834 -244.175836 
L 256.859451 -239.95205 
L 254.680561 -245.495245 
L 252.501672 -241.86071 
L 250.322782 -235.275893 
L 248.143893 -243.787917 
L 245.965003 -246.622661 
L 243.786113 -243.87489 
L 241.607224 -245.709159 
L 239.428334 -240.592292 
L 237.249445 -238.149257 
L 235.070555 -238.153756 
L 232.891666 -240.833059 
L 230.712776 -242.397311 
L 228.533887 -238.169154 
L 226.354997 -239.289603 
L 224.176107 -244.48495 
L 221.997218 -242.173685 
L 219.818328 -240.240004 
L 217.639439 -243.395817 
L 215.460549 -242.68169 
L 213.28166 -239.420717 
L 211.10277 -236.375669 
L 208.92388 -237.156925 
L 206.744991 -237.288192 
L 204.566101 -238.322621 
L 202.387212 -241.723158 
L 200.208322 -241.035617 
L 198.029433 -246.853598 
L 195.850543 -243.133818 
L 193.671653 -245.935449 
L 191.492764 -246.771365 
L 189.313874 -240.546037 
L 187.134985 -238.305447 
L 184.956095 -240.595689 
L 182.777206 -236.874654 
L 180.598316 -240.203161 
L 178.419426 -237.187007 
L 176.240537 -233.805507 
L 174.061647 -238.262866 
L 171.882758 -237.898209 
L 169.703868 -246.645436 
L 167.524979 -240.013044 
L 165.346089 -245.325573 
L 163.1672 -243.302625 
L 160.98831 -244.270913 
L 158.80942 -242.20293 
L 156.630531 -241.787705 
L 154.451641 -241.388964 
L 152.272752 -241.806641 
L 150.093862 -245.786027 
L 147.914973 -244.848325 
L 145.736083 -244.651174 
L 143.557193 -249.66445 
L 141.378304 -243.547711 
L 139.199414 -248.040634 
L 137.020525 -233.437058 
L 134.841635 -234.616727 
L 132.662746 -241.229549 
L 130.483856 -242.689334 
L 128.304966 -247.01375 
L 126.126077 -237.169132 
L 123.947187 -242.775302 
L 121.768298 -236.832658 
L 119.589408 -240.067947 
L 117.410519 -236.111112 
L 115.231629 -250.234515 
L 113.052739 -243.329367 
L 110.87385 -250.410035 
L 108.69496 -256.971949 
L 106.516071 -245.7285 
L 104.337181 -243.396294 
L 102.158292 -244.776144 
L 99.979402 -238.080872 
L 97.800513 -247.978199 
L 95.621623 -232.682511 
L 93.442733 -242.745042 
L 91.263844 -252.879045 
L 89.084954 -244.198066 
L 86.906065 -248.640284 
L 84.727175 -241.797602 
L 82.548286 -244.605341 
L 80.369396 -249.479523 
L 78.190506 -260.050844 
L 76.011617 -255.802734 
L 73.832727 -247.324988 
z
" style="stroke: #e1632a; stroke-opacity: 0.2"/>
    </defs>
    <g clip-path="url(#p88b4d22ba6)">
     <use xlink:href="#m82c74b77d7" x="0" y="345.6" style="fill: #e1632a; fill-opacity: 0.2; stroke: #e1632a; stroke-opacity: 0.2"/>
    </g>
   </g>
   <g id="line2d_27">
    <path d="M 73.832727 220.454701 
L 76.011617 226.235481 
L 78.190506 234.534289 
L 80.369396 230.853225 
L 82.548286 250.239227 
L 84.727175 228.130784 
L 86.906065 221.277493 
L 89.084954 232.542867 
L 91.263844 222.925853 
L 93.442733 236.893371 
L 95.621623 242.524447 
L 97.800513 235.177002 
L 99.979402 233.876653 
L 102.158292 230.003242 
L 104.337181 215.960175 
L 106.516071 232.490204 
L 108.69496 232.00818 
L 110.87385 222.288655 
L 113.052739 217.770956 
L 115.231629 212.769048 
L 117.410519 215.570125 
L 119.589408 212.085265 
L 121.768298 212.938289 
L 123.947187 219.940057 
L 126.126077 218.595708 
L 128.304966 219.123953 
L 130.483856 221.354054 
L 132.662746 214.655663 
L 134.841635 220.161512 
L 137.020525 219.501809 
L 139.199414 219.455892 
L 141.378304 222.796309 
L 143.557193 225.867962 
L 145.736083 220.674029 
L 147.914973 217.185968 
L 150.093862 219.785785 
L 152.272752 217.885433 
L 154.451641 212.232838 
L 156.630531 222.631821 
L 158.80942 227.638282 
L 160.98831 225.61408 
L 163.1672 238.888839 
L 165.346089 230.116493 
L 167.524979 230.601484 
L 169.703868 228.651388 
L 171.882758 222.262455 
L 174.061647 221.884268 
L 176.240537 224.172922 
L 178.419426 231.289017 
L 180.598316 226.178081 
L 182.777206 224.984906 
L 184.956095 224.012714 
L 187.134985 224.643086 
L 189.313874 209.969645 
L 191.492764 220.746636 
L 193.671653 218.800147 
L 195.850543 215.005688 
L 198.029433 197.698687 
L 200.208322 210.40871 
L 202.387212 209.354107 
L 204.566101 203.099371 
L 206.744991 210.808934 
L 208.92388 208.888547 
L 211.10277 209.612384 
L 213.28166 206.577206 
L 217.639439 200.096334 
L 219.818328 212.393107 
L 221.997218 209.902395 
L 224.176107 211.619044 
L 226.354997 211.390125 
L 228.533887 216.87031 
L 230.712776 216.260268 
L 232.891666 210.739048 
L 235.070555 208.57957 
L 237.249445 212.889976 
L 239.428334 208.581701 
L 241.607224 201.014434 
L 243.786113 195.989426 
L 245.965003 198.851789 
L 248.143893 196.966883 
L 250.322782 193.230698 
L 252.501672 194.638298 
L 254.680561 186.757379 
L 256.859451 186.865599 
L 259.03834 186.159509 
L 261.21723 189.180576 
L 263.39612 185.558925 
L 265.575009 193.493062 
L 267.753899 198.005468 
L 269.932788 187.991142 
L 272.111678 188.280175 
L 274.290567 186.22354 
L 276.469457 194.880635 
L 278.648347 181.782491 
L 280.827236 184.249941 
L 283.006126 187.167856 
L 285.185015 183.950747 
L 287.363905 184.337414 
L 289.542794 179.237492 
L 291.721684 181.357661 
L 293.900574 175.29034 
L 296.079463 180.504335 
L 298.258353 181.142011 
L 300.437242 185.016131 
L 302.616132 183.148202 
L 304.795021 184.546857 
L 306.973911 187.854781 
L 309.1528 187.334218 
L 311.33169 190.95429 
L 313.51058 177.196838 
L 315.689469 182.495963 
L 317.868359 186.876113 
L 320.047248 182.082965 
L 322.226138 179.622722 
L 324.405027 183.665871 
L 326.583917 169.807526 
L 328.762807 175.351031 
L 330.941696 171.118404 
L 333.120586 175.383827 
L 335.299475 173.349771 
L 337.478365 171.074785 
L 339.657254 170.974492 
L 341.836144 163.22875 
L 344.015034 165.035061 
L 346.193923 167.103007 
L 348.372813 160.86666 
L 350.551702 158.665753 
L 352.730592 154.099042 
L 354.909481 148.241347 
L 357.088371 149.951221 
L 361.44615 148.189249 
L 363.62504 148.050701 
L 365.803929 146.076655 
L 367.982819 149.182056 
L 370.161708 141.766579 
L 372.340598 138.054414 
L 374.519487 140.904399 
L 376.698377 134.564546 
L 378.877267 134.646797 
L 381.056156 130.586548 
L 385.413935 121.646049 
L 387.592825 118.57658 
L 389.771714 113.393434 
L 391.950604 110.266293 
L 394.129494 111.269307 
L 396.308383 109.577489 
L 398.487273 86.96784 
L 398.487273 86.96784 
" clip-path="url(#p88b4d22ba6)" style="fill: none; stroke: #7fbc38; stroke-width: 1.5; stroke-linecap: round"/>
   </g>
   <g id="line2d_28">
    <path d="M 73.832727 147.713016 
L 76.011617 137.20111 
L 78.190506 130.487487 
L 82.548286 149.099918 
L 84.727175 147.34607 
L 86.906065 138.928561 
L 89.084954 143.255678 
L 91.263844 136.355785 
L 93.442733 145.345412 
L 95.621623 157.708599 
L 97.800513 139.602606 
L 99.979402 146.658309 
L 102.158292 141.909845 
L 104.337181 142.252221 
L 106.516071 139.546824 
L 108.69496 128.428767 
L 110.87385 130.546291 
L 113.052739 146.229374 
L 115.231629 135.744625 
L 117.410519 146.889833 
L 119.589408 148.046124 
L 121.768298 148.043719 
L 123.947187 140.105675 
L 126.126077 142.875142 
L 128.304966 135.034683 
L 130.483856 136.212726 
L 132.662746 142.419684 
L 134.841635 146.582715 
L 137.020525 147.03949 
L 139.199414 129.501506 
L 141.378304 137.290719 
L 143.557193 130.025198 
L 145.736083 130.515382 
L 147.914973 134.309495 
L 150.093862 132.642715 
L 152.272752 134.734705 
L 154.451641 133.805211 
L 156.630531 136.586741 
L 158.80942 136.050173 
L 160.98831 132.763418 
L 163.1672 136.105675 
L 165.346089 131.049217 
L 167.524979 136.895808 
L 169.703868 130.319186 
L 171.882758 138.291188 
L 174.061647 137.916651 
L 176.240537 147.642201 
L 178.419426 140.287682 
L 180.598316 135.524907 
L 182.777206 141.312347 
L 184.956095 136.256602 
L 187.134985 136.757924 
L 189.313874 135.531087 
L 191.492764 128.470938 
L 193.671653 127.598046 
L 195.850543 132.661636 
L 198.029433 131.48327 
L 200.208322 133.07624 
L 202.387212 130.686909 
L 204.566101 137.570626 
L 206.744991 132.959564 
L 208.92388 138.822837 
L 211.10277 137.35346 
L 213.28166 136.110627 
L 215.460549 129.14934 
L 217.639439 130.949865 
L 219.818328 132.183157 
L 221.997218 131.02703 
L 224.176107 130.379007 
L 226.354997 135.183931 
L 228.533887 135.779938 
L 230.712776 130.18954 
L 232.891666 131.912361 
L 235.070555 134.535095 
L 237.249445 136.232782 
L 239.428334 133.114831 
L 241.607224 126.928872 
L 243.786113 131.050593 
L 245.965003 124.609937 
L 248.143893 127.215357 
L 250.322782 136.567525 
L 252.501672 132.140212 
L 254.680561 124.369177 
L 256.859451 130.586212 
L 259.03834 127.707173 
L 261.21723 126.148378 
L 263.39612 131.057095 
L 265.575009 123.61382 
L 267.753899 126.673857 
L 269.932788 128.014688 
L 272.111678 128.614036 
L 274.290567 131.315385 
L 276.469457 127.498951 
L 278.648347 128.586514 
L 280.827236 127.273151 
L 283.006126 133.210903 
L 285.185015 125.880317 
L 287.363905 133.215253 
L 289.542794 128.897081 
L 291.721684 130.702394 
L 293.900574 128.47742 
L 296.079463 127.654395 
L 298.258353 129.427824 
L 300.437242 127.207493 
L 302.616132 126.545471 
L 304.795021 126.939537 
L 306.973911 120.603593 
L 309.1528 121.980959 
L 311.33169 120.946638 
L 313.51058 131.636539 
L 315.689469 124.621712 
L 317.868359 127.696705 
L 320.047248 127.002605 
L 322.226138 123.844727 
L 324.405027 122.309301 
L 326.583917 127.848948 
L 328.762807 125.364839 
L 330.941696 128.330403 
L 333.120586 122.422586 
L 335.299475 121.988657 
L 337.478365 122.188487 
L 339.657254 120.545815 
L 341.836144 119.939223 
L 344.015034 124.930633 
L 346.193923 121.658614 
L 348.372813 120.449392 
L 350.551702 121.684229 
L 352.730592 118.249434 
L 354.909481 121.490876 
L 357.088371 119.896698 
L 359.267261 116.186528 
L 361.44615 120.733918 
L 363.62504 120.345684 
L 365.803929 120.560287 
L 367.982819 119.501303 
L 370.161708 122.450938 
L 372.340598 119.736054 
L 374.519487 123.162161 
L 376.698377 118.241027 
L 378.877267 114.998363 
L 381.056156 114.344458 
L 383.235046 116.749746 
L 385.413935 119.701455 
L 387.592825 121.634687 
L 389.771714 112.629591 
L 391.950604 101.988372 
L 394.129494 107.794137 
L 396.308383 93.557164 
L 398.487273 83.594224 
L 398.487273 83.594224 
" clip-path="url(#p88b4d22ba6)" style="fill: none; stroke: #e1632a; stroke-width: 1.5; stroke-linecap: round"/>
   </g>
   <g id="line2d_29"/>
   <g id="line2d_30"/>
   <g id="patch_3">
    <path d="M 57.6 307.584 
L 57.6 41.472 
" style="fill: none; stroke: #262626; stroke-width: 1.25; stroke-linejoin: miter; stroke-linecap: square"/>
   </g>
   <g id="patch_4">
    <path d="M 414.72 307.584 
L 414.72 41.472 
" style="fill: none; stroke: #262626; stroke-width: 1.25; stroke-linejoin: miter; stroke-linecap: square"/>
   </g>
   <g id="patch_5">
    <path d="M 57.6 307.584 
L 414.72 307.584 
" style="fill: none; stroke: #262626; stroke-width: 1.25; stroke-linejoin: miter; stroke-linecap: square"/>
   </g>
   <g id="patch_6">
    <path d="M 57.6 41.472 
L 414.72 41.472 
" style="fill: none; stroke: #262626; stroke-width: 1.25; stroke-linejoin: miter; stroke-linecap: square"/>
   </g>
   <g id="legend_1">
    <g id="patch_7">
     <path d="M 65.3 99.677625 
L 111.214688 99.677625 
Q 113.414688 99.677625 113.414688 97.477625 
L 113.414688 49.172 
Q 113.414688 46.972 111.214688 46.972 
L 65.3 46.972 
Q 63.1 46.972 63.1 49.172 
L 63.1 97.477625 
Q 63.1 99.677625 65.3 99.677625 
z
" style="fill: #ffffff; opacity: 0.8; stroke: #cccccc; stroke-linejoin: miter"/>
    </g>
    <g id="text_16">
     <!-- t -->
     <g style="fill: #262626" transform="translate(85.905156 60.490125) scale(0.12 -0.12)">
      <use xlink:href="#DejaVuSans-74"/>
     </g>
    </g>
    <g id="line2d_31">
     <path d="M 67.5 72.994031 
L 78.5 72.994031 
L 89.5 72.994031 
" style="fill: none; stroke: #7fbc38; stroke-width: 1.5; stroke-linecap: round"/>
    </g>
    <g id="text_17">
     <!-- p -->
     <g style="fill: #262626" transform="translate(98.3 76.844031) scale(0.11 -0.11)">
      <use xlink:href="#DejaVuSans-70"/>
     </g>
    </g>
    <g id="line2d_32">
     <path d="M 67.5 89.139969 
L 78.5 89.139969 
L 89.5 89.139969 
" style="fill: none; stroke: #e1632a; stroke-width: 1.5; stroke-linecap: round"/>
    </g>
    <g id="text_18">
     <!-- m -->
     <g style="fill: #262626" transform="translate(98.3 92.989969) scale(0.11 -0.11)">
      <use xlink:href="#DejaVuSans-6d"/>
     </g>
    </g>
   </g>
  </g>
 </g>
 <defs>
  <clipPath id="p88b4d22ba6">
   <rect x="57.6" y="41.472" width="357.12" height="266.112"/>
  </clipPath>
 </defs>
</svg>
