<?xml version="1.0" encoding="utf-8" standalone="no"?>
<!DOCTYPE svg PUBLIC "-//W3C//DTD SVG 1.1//EN"
  "http://www.w3.org/Graphics/SVG/1.1/DTD/svg11.dtd">
<svg xmlns:xlink="http://www.w3.org/1999/xlink" width="432pt" height="432pt" viewBox="0 0 432 432" xmlns="http://www.w3.org/2000/svg" version="1.1">
 <metadata>
  <rdf:RDF xmlns:dc="http://purl.org/dc/elements/1.1/" xmlns:cc="http://creativecommons.org/ns#" xmlns:rdf="http://www.w3.org/1999/02/22-rdf-syntax-ns#">
   <cc:Work>
    <dc:type rdf:resource="http://purl.org/dc/dcmitype/StillImage"/>
    <dc:date>2024-04-14T20:07:03.795287</dc:date>
    <dc:format>image/svg+xml</dc:format>
    <dc:creator>
     <cc:Agent>
      <dc:title>Matplotlib v3.8.0, https://matplotlib.org/</dc:title>
     </cc:Agent>
    </dc:creator>
   </cc:Work>
  </rdf:RDF>
 </metadata>
 <defs>
  <style type="text/css">*{stroke-linejoin: round; stroke-linecap: butt}</style>
 </defs>
 <g id="figure_1">
  <g id="patch_1">
   <path d="M 0 432 
L 432 432 
L 432 0 
L 0 0 
z
" style="fill: #ffffff"/>
  </g>
  <g id="axes_1">
   <g id="patch_2">
    <path d="M 54 384.48 
L 301.46087 384.48 
L 301.46087 138.615652 
L 54 138.615652 
z
" style="fill: #ffffff"/>
   </g>
   <g id="matplotlib.axis_1">
    <g id="xtick_1">
     <g id="line2d_1">
      <defs>
       <path id="m20ad928f89" d="M 0 0 
L 0 6 
" style="stroke: #262626; stroke-width: 1.25"/>
      </defs>
      <g>
       <use xlink:href="#m20ad928f89" x="65.248221" y="384.48" style="fill: #262626; stroke: #262626; stroke-width: 1.25"/>
      </g>
     </g>
     <g id="text_1">
      <!-- 0.0 -->
      <g style="fill: #262626" transform="translate(56.501503 402.338281) scale(0.11 -0.11)">
       <defs>
        <path id="DejaVuSans-30" d="M 2034 4250 
Q 1547 4250 1301 3770 
Q 1056 3291 1056 2328 
Q 1056 1369 1301 889 
Q 1547 409 2034 409 
Q 2525 409 2770 889 
Q 3016 1369 3016 2328 
Q 3016 3291 2770 3770 
Q 2525 4250 2034 4250 
z
M 2034 4750 
Q 2819 4750 3233 4129 
Q 3647 3509 3647 2328 
Q 3647 1150 3233 529 
Q 2819 -91 2034 -91 
Q 1250 -91 836 529 
Q 422 1150 422 2328 
Q 422 3509 836 4129 
Q 1250 4750 2034 4750 
z
" transform="scale(0.015625)"/>
        <path id="DejaVuSans-2e" d="M 684 794 
L 1344 794 
L 1344 0 
L 684 0 
L 684 794 
z
" transform="scale(0.015625)"/>
       </defs>
       <use xlink:href="#DejaVuSans-30"/>
       <use xlink:href="#DejaVuSans-2e" x="63.623047"/>
       <use xlink:href="#DejaVuSans-30" x="95.410156"/>
      </g>
     </g>
    </g>
    <g id="xtick_2">
     <g id="line2d_2">
      <g>
       <use xlink:href="#m20ad928f89" x="124.147917" y="384.48" style="fill: #262626; stroke: #262626; stroke-width: 1.25"/>
      </g>
     </g>
     <g id="text_2">
      <!-- 0.25 -->
      <g style="fill: #262626" transform="translate(111.901823 402.338281) scale(0.11 -0.11)">
       <defs>
        <path id="DejaVuSans-32" d="M 1228 531 
L 3431 531 
L 3431 0 
L 469 0 
L 469 531 
Q 828 903 1448 1529 
Q 2069 2156 2228 2338 
Q 2531 2678 2651 2914 
Q 2772 3150 2772 3378 
Q 2772 3750 2511 3984 
Q 2250 4219 1831 4219 
Q 1534 4219 1204 4116 
Q 875 4013 500 3803 
L 500 4441 
Q 881 4594 1212 4672 
Q 1544 4750 1819 4750 
Q 2544 4750 2975 4387 
Q 3406 4025 3406 3419 
Q 3406 3131 3298 2873 
Q 3191 2616 2906 2266 
Q 2828 2175 2409 1742 
Q 1991 1309 1228 531 
z
" transform="scale(0.015625)"/>
        <path id="DejaVuSans-35" d="M 691 4666 
L 3169 4666 
L 3169 4134 
L 1269 4134 
L 1269 2991 
Q 1406 3038 1543 3061 
Q 1681 3084 1819 3084 
Q 2600 3084 3056 2656 
Q 3513 2228 3513 1497 
Q 3513 744 3044 326 
Q 2575 -91 1722 -91 
Q 1428 -91 1123 -41 
Q 819 9 494 109 
L 494 744 
Q 775 591 1075 516 
Q 1375 441 1709 441 
Q 2250 441 2565 725 
Q 2881 1009 2881 1497 
Q 2881 1984 2565 2268 
Q 2250 2553 1709 2553 
Q 1456 2553 1204 2497 
Q 953 2441 691 2322 
L 691 4666 
z
" transform="scale(0.015625)"/>
       </defs>
       <use xlink:href="#DejaVuSans-30"/>
       <use xlink:href="#DejaVuSans-2e" x="63.623047"/>
       <use xlink:href="#DejaVuSans-32" x="95.410156"/>
       <use xlink:href="#DejaVuSans-35" x="159.033203"/>
      </g>
     </g>
    </g>
    <g id="xtick_3">
     <g id="line2d_3">
      <g>
       <use xlink:href="#m20ad928f89" x="183.047612" y="384.48" style="fill: #262626; stroke: #262626; stroke-width: 1.25"/>
      </g>
     </g>
     <g id="text_3">
      <!-- 0.5 -->
      <g style="fill: #262626" transform="translate(174.300893 402.338281) scale(0.11 -0.11)">
       <use xlink:href="#DejaVuSans-30"/>
       <use xlink:href="#DejaVuSans-2e" x="63.623047"/>
       <use xlink:href="#DejaVuSans-35" x="95.410156"/>
      </g>
     </g>
    </g>
    <g id="xtick_4">
     <g id="line2d_4">
      <g>
       <use xlink:href="#m20ad928f89" x="241.947307" y="384.48" style="fill: #262626; stroke: #262626; stroke-width: 1.25"/>
      </g>
     </g>
     <g id="text_4">
      <!-- 0.75 -->
      <g style="fill: #262626" transform="translate(229.701214 402.338281) scale(0.11 -0.11)">
       <defs>
        <path id="DejaVuSans-37" d="M 525 4666 
L 3525 4666 
L 3525 4397 
L 1831 0 
L 1172 0 
L 2766 4134 
L 525 4134 
L 525 4666 
z
" transform="scale(0.015625)"/>
       </defs>
       <use xlink:href="#DejaVuSans-30"/>
       <use xlink:href="#DejaVuSans-2e" x="63.623047"/>
       <use xlink:href="#DejaVuSans-37" x="95.410156"/>
       <use xlink:href="#DejaVuSans-35" x="159.033203"/>
      </g>
     </g>
    </g>
    <g id="xtick_5">
     <g id="line2d_5">
      <g>
       <use xlink:href="#m20ad928f89" x="300.847003" y="384.48" style="fill: #262626; stroke: #262626; stroke-width: 1.25"/>
      </g>
     </g>
     <g id="text_5">
      <!-- 1.0 -->
      <g style="fill: #262626" transform="translate(292.100284 402.338281) scale(0.11 -0.11)">
       <defs>
        <path id="DejaVuSans-31" d="M 794 531 
L 1825 531 
L 1825 4091 
L 703 3866 
L 703 4441 
L 1819 4666 
L 2450 4666 
L 2450 531 
L 3481 531 
L 3481 0 
L 794 0 
L 794 531 
z
" transform="scale(0.015625)"/>
       </defs>
       <use xlink:href="#DejaVuSans-31"/>
       <use xlink:href="#DejaVuSans-2e" x="63.623047"/>
       <use xlink:href="#DejaVuSans-30" x="95.410156"/>
      </g>
     </g>
    </g>
   </g>
   <g id="matplotlib.axis_2">
    <g id="ytick_1">
     <g id="line2d_6">
      <defs>
       <path id="m695d71995a" d="M 0 0 
L -6 0 
" style="stroke: #262626; stroke-width: 1.25"/>
      </defs>
      <g>
       <use xlink:href="#m695d71995a" x="54" y="373.304348" style="fill: #262626; stroke: #262626; stroke-width: 1.25"/>
      </g>
     </g>
     <g id="text_6">
      <!-- 0.0 -->
      <g style="fill: #262626" transform="translate(27.006563 377.483488) scale(0.11 -0.11)">
       <use xlink:href="#DejaVuSans-30"/>
       <use xlink:href="#DejaVuSans-2e" x="63.623047"/>
       <use xlink:href="#DejaVuSans-30" x="95.410156"/>
      </g>
     </g>
    </g>
    <g id="ytick_2">
     <g id="line2d_7">
      <g>
       <use xlink:href="#m695d71995a" x="54" y="317.35493" style="fill: #262626; stroke: #262626; stroke-width: 1.25"/>
      </g>
     </g>
     <g id="text_7">
      <!-- 0.25 -->
      <g style="fill: #262626" transform="translate(20.007812 321.534071) scale(0.11 -0.11)">
       <use xlink:href="#DejaVuSans-30"/>
       <use xlink:href="#DejaVuSans-2e" x="63.623047"/>
       <use xlink:href="#DejaVuSans-32" x="95.410156"/>
       <use xlink:href="#DejaVuSans-35" x="159.033203"/>
      </g>
     </g>
    </g>
    <g id="ytick_3">
     <g id="line2d_8">
      <g>
       <use xlink:href="#m695d71995a" x="54" y="261.405512" style="fill: #262626; stroke: #262626; stroke-width: 1.25"/>
      </g>
     </g>
     <g id="text_8">
      <!-- 0.5 -->
      <g style="fill: #262626" transform="translate(27.006563 265.584653) scale(0.11 -0.11)">
       <use xlink:href="#DejaVuSans-30"/>
       <use xlink:href="#DejaVuSans-2e" x="63.623047"/>
       <use xlink:href="#DejaVuSans-35" x="95.410156"/>
      </g>
     </g>
    </g>
    <g id="ytick_4">
     <g id="line2d_9">
      <g>
       <use xlink:href="#m695d71995a" x="54" y="205.456094" style="fill: #262626; stroke: #262626; stroke-width: 1.25"/>
      </g>
     </g>
     <g id="text_9">
      <!-- 0.75 -->
      <g style="fill: #262626" transform="translate(20.007812 209.635235) scale(0.11 -0.11)">
       <use xlink:href="#DejaVuSans-30"/>
       <use xlink:href="#DejaVuSans-2e" x="63.623047"/>
       <use xlink:href="#DejaVuSans-37" x="95.410156"/>
       <use xlink:href="#DejaVuSans-35" x="159.033203"/>
      </g>
     </g>
    </g>
    <g id="ytick_5">
     <g id="line2d_10">
      <g>
       <use xlink:href="#m695d71995a" x="54" y="149.506676" style="fill: #262626; stroke: #262626; stroke-width: 1.25"/>
      </g>
     </g>
     <g id="text_10">
      <!-- 1.0 -->
      <g style="fill: #262626" transform="translate(27.006563 153.685817) scale(0.11 -0.11)">
       <use xlink:href="#DejaVuSans-31"/>
       <use xlink:href="#DejaVuSans-2e" x="63.623047"/>
       <use xlink:href="#DejaVuSans-30" x="95.410156"/>
      </g>
     </g>
    </g>
   </g>
   <g id="PathCollection_1">
    <defs>
     <path id="m67346b6b05" d="M 0 3 
C 0.795609 3 1.55874 2.683901 2.12132 2.12132 
C 2.683901 1.55874 3 0.795609 3 0 
C 3 -0.795609 2.683901 -1.55874 2.12132 -2.12132 
C 1.55874 -2.683901 0.795609 -3 0 -3 
C -0.795609 -3 -1.55874 -2.683901 -2.12132 -2.12132 
C -2.683901 -1.55874 -3 -0.795609 -3 0 
C -3 0.795609 -2.683901 1.55874 -2.12132 2.12132 
C -1.55874 2.683901 -0.795609 3 0 3 
z
" style="stroke: #f19d39"/>
    </defs>
    <g clip-path="url(#pd2424d4a2c)">
     <use xlink:href="#m67346b6b05" x="102.213958" y="277.250763" style="fill: #f19d39; stroke: #f19d39"/>
     <use xlink:href="#m67346b6b05" x="89.23195" y="290.070802" style="fill: #f19d39; stroke: #f19d39"/>
     <use xlink:href="#m67346b6b05" x="90.33328" y="345.042737" style="fill: #f19d39; stroke: #f19d39"/>
     <use xlink:href="#m67346b6b05" x="143.351472" y="316.951634" style="fill: #f19d39; stroke: #f19d39"/>
     <use xlink:href="#m67346b6b05" x="77.756607" y="370.349152" style="fill: #f19d39; stroke: #f19d39"/>
     <use xlink:href="#m67346b6b05" x="159.069982" y="332.675721" style="fill: #f19d39; stroke: #f19d39"/>
     <use xlink:href="#m67346b6b05" x="132.350804" y="309.910263" style="fill: #f19d39; stroke: #f19d39"/>
     <use xlink:href="#m67346b6b05" x="168.548591" y="280.950622" style="fill: #f19d39; stroke: #f19d39"/>
     <use xlink:href="#m67346b6b05" x="124.121409" y="365.261888" style="fill: #f19d39; stroke: #f19d39"/>
     <use xlink:href="#m67346b6b05" x="165.883834" y="310.599293" style="fill: #f19d39; stroke: #f19d39"/>
     <use xlink:href="#m67346b6b05" x="143.386081" y="324.744716" style="fill: #f19d39; stroke: #f19d39"/>
     <use xlink:href="#m67346b6b05" x="120.6682" y="359.468923" style="fill: #f19d39; stroke: #f19d39"/>
     <use xlink:href="#m67346b6b05" x="105.307068" y="329.125351" style="fill: #f19d39; stroke: #f19d39"/>
     <use xlink:href="#m67346b6b05" x="76.001523" y="270.068981" style="fill: #f19d39; stroke: #f19d39"/>
     <use xlink:href="#m67346b6b05" x="76.419437" y="350.726782" style="fill: #f19d39; stroke: #f19d39"/>
     <use xlink:href="#m67346b6b05" x="133.633329" y="364.62095" style="fill: #f19d39; stroke: #f19d39"/>
     <use xlink:href="#m67346b6b05" x="168.003148" y="311.474008" style="fill: #f19d39; stroke: #f19d39"/>
     <use xlink:href="#m67346b6b05" x="108.645625" y="284.936632" style="fill: #f19d39; stroke: #f19d39"/>
     <use xlink:href="#m67346b6b05" x="96.02715" y="339.658725" style="fill: #f19d39; stroke: #f19d39"/>
     <use xlink:href="#m67346b6b05" x="165.890239" y="322.30571" style="fill: #f19d39; stroke: #f19d39"/>
     <use xlink:href="#m67346b6b05" x="70.688475" y="365.98194" style="fill: #f19d39; stroke: #f19d39"/>
     <use xlink:href="#m67346b6b05" x="149.035773" y="327.53569" style="fill: #f19d39; stroke: #f19d39"/>
     <use xlink:href="#m67346b6b05" x="91.064661" y="368.248537" style="fill: #f19d39; stroke: #f19d39"/>
     <use xlink:href="#m67346b6b05" x="109.600128" y="282.305661" style="fill: #f19d39; stroke: #f19d39"/>
     <use xlink:href="#m67346b6b05" x="84.41602" y="334.912859" style="fill: #f19d39; stroke: #f19d39"/>
     <use xlink:href="#m67346b6b05" x="155.80656" y="281.582937" style="fill: #f19d39; stroke: #f19d39"/>
     <use xlink:href="#m67346b6b05" x="134.720383" y="277.903424" style="fill: #f19d39; stroke: #f19d39"/>
     <use xlink:href="#m67346b6b05" x="110.187189" y="373.304348" style="fill: #f19d39; stroke: #f19d39"/>
     <use xlink:href="#m67346b6b05" x="103.073484" y="317.581274" style="fill: #f19d39; stroke: #f19d39"/>
     <use xlink:href="#m67346b6b05" x="65.248221" y="348.212093" style="fill: #f19d39; stroke: #f19d39"/>
     <use xlink:href="#m67346b6b05" x="131.028747" y="330.366826" style="fill: #f19d39; stroke: #f19d39"/>
     <use xlink:href="#m67346b6b05" x="83.388928" y="286.409774" style="fill: #f19d39; stroke: #f19d39"/>
     <use xlink:href="#m67346b6b05" x="84.497295" y="360.171974" style="fill: #f19d39; stroke: #f19d39"/>
     <use xlink:href="#m67346b6b05" x="119.024795" y="365.41883" style="fill: #f19d39; stroke: #f19d39"/>
     <use xlink:href="#m67346b6b05" x="89.294464" y="340.885389" style="fill: #f19d39; stroke: #f19d39"/>
     <use xlink:href="#m67346b6b05" x="114.395165" y="266.743898" style="fill: #f19d39; stroke: #f19d39"/>
     <use xlink:href="#m67346b6b05" x="115.991658" y="312.383489" style="fill: #f19d39; stroke: #f19d39"/>
     <use xlink:href="#m67346b6b05" x="97.160354" y="344.960493" style="fill: #f19d39; stroke: #f19d39"/>
     <use xlink:href="#m67346b6b05" x="128.461447" y="361.202497" style="fill: #f19d39; stroke: #f19d39"/>
     <use xlink:href="#m67346b6b05" x="114.776045" y="348.775148" style="fill: #f19d39; stroke: #f19d39"/>
     <use xlink:href="#m67346b6b05" x="102.816727" y="305.387832" style="fill: #f19d39; stroke: #f19d39"/>
     <use xlink:href="#m67346b6b05" x="83.441716" y="320.523574" style="fill: #f19d39; stroke: #f19d39"/>
     <use xlink:href="#m67346b6b05" x="82.162203" y="324.806856" style="fill: #f19d39; stroke: #f19d39"/>
     <use xlink:href="#m67346b6b05" x="143.793785" y="328.858301" style="fill: #f19d39; stroke: #f19d39"/>
     <use xlink:href="#m67346b6b05" x="117.971716" y="288.367631" style="fill: #f19d39; stroke: #f19d39"/>
     <use xlink:href="#m67346b6b05" x="79.068869" y="337.730213" style="fill: #f19d39; stroke: #f19d39"/>
     <use xlink:href="#m67346b6b05" x="111.216788" y="346.043676" style="fill: #f19d39; stroke: #f19d39"/>
     <use xlink:href="#m67346b6b05" x="79.706021" y="360.322637" style="fill: #f19d39; stroke: #f19d39"/>
     <use xlink:href="#m67346b6b05" x="136.381617" y="353.036406" style="fill: #f19d39; stroke: #f19d39"/>
     <use xlink:href="#m67346b6b05" x="74.187938" y="304.54677" style="fill: #f19d39; stroke: #f19d39"/>
     <use xlink:href="#m67346b6b05" x="67.281302" y="299.372769" style="fill: #f19d39; stroke: #f19d39"/>
     <use xlink:href="#m67346b6b05" x="78.007558" y="269.52786" style="fill: #f19d39; stroke: #f19d39"/>
     <use xlink:href="#m67346b6b05" x="166.684897" y="329.397123" style="fill: #f19d39; stroke: #f19d39"/>
     <use xlink:href="#m67346b6b05" x="163.235226" y="342.603031" style="fill: #f19d39; stroke: #f19d39"/>
     <use xlink:href="#m67346b6b05" x="135.380815" y="340.619429" style="fill: #f19d39; stroke: #f19d39"/>
     <use xlink:href="#m67346b6b05" x="125.70692" y="346.791598" style="fill: #f19d39; stroke: #f19d39"/>
     <use xlink:href="#m67346b6b05" x="136.177695" y="311.024231" style="fill: #f19d39; stroke: #f19d39"/>
     <use xlink:href="#m67346b6b05" x="93.086643" y="303.567638" style="fill: #f19d39; stroke: #f19d39"/>
     <use xlink:href="#m67346b6b05" x="76.151165" y="323.726581" style="fill: #f19d39; stroke: #f19d39"/>
     <use xlink:href="#m67346b6b05" x="170.539699" y="312.968743" style="fill: #f19d39; stroke: #f19d39"/>
     <use xlink:href="#m67346b6b05" x="89.496413" y="369.963686" style="fill: #f19d39; stroke: #f19d39"/>
     <use xlink:href="#m67346b6b05" x="108.915513" y="348.240805" style="fill: #f19d39; stroke: #f19d39"/>
     <use xlink:href="#m67346b6b05" x="90.948476" y="289.388465" style="fill: #f19d39; stroke: #f19d39"/>
     <use xlink:href="#m67346b6b05" x="104.528765" y="310.649291" style="fill: #f19d39; stroke: #f19d39"/>
     <use xlink:href="#m67346b6b05" x="65.248221" y="370.32737" style="fill: #f19d39; stroke: #f19d39"/>
     <use xlink:href="#m67346b6b05" x="162.734469" y="365.692797" style="fill: #f19d39; stroke: #f19d39"/>
     <use xlink:href="#m67346b6b05" x="92.871641" y="305.506608" style="fill: #f19d39; stroke: #f19d39"/>
     <use xlink:href="#m67346b6b05" x="66.821355" y="373.304348" style="fill: #f19d39; stroke: #f19d39"/>
     <use xlink:href="#m67346b6b05" x="102.04497" y="369.723834" style="fill: #f19d39; stroke: #f19d39"/>
     <use xlink:href="#m67346b6b05" x="114.319652" y="355.610122" style="fill: #f19d39; stroke: #f19d39"/>
     <use xlink:href="#m67346b6b05" x="115.745892" y="366.630126" style="fill: #f19d39; stroke: #f19d39"/>
     <use xlink:href="#m67346b6b05" x="140.327077" y="328.284122" style="fill: #f19d39; stroke: #f19d39"/>
     <use xlink:href="#m67346b6b05" x="82.218584" y="368.922109" style="fill: #f19d39; stroke: #f19d39"/>
     <use xlink:href="#m67346b6b05" x="65.248221" y="333.512469" style="fill: #f19d39; stroke: #f19d39"/>
     <use xlink:href="#m67346b6b05" x="131.445019" y="285.980898" style="fill: #f19d39; stroke: #f19d39"/>
     <use xlink:href="#m67346b6b05" x="144.758201" y="298.250135" style="fill: #f19d39; stroke: #f19d39"/>
     <use xlink:href="#m67346b6b05" x="78.546277" y="368.388097" style="fill: #f19d39; stroke: #f19d39"/>
     <use xlink:href="#m67346b6b05" x="70.848378" y="312.562611" style="fill: #f19d39; stroke: #f19d39"/>
     <use xlink:href="#m67346b6b05" x="86.909928" y="299.373856" style="fill: #f19d39; stroke: #f19d39"/>
     <use xlink:href="#m67346b6b05" x="100.187416" y="270.641333" style="fill: #f19d39; stroke: #f19d39"/>
     <use xlink:href="#m67346b6b05" x="95.503342" y="306.556205" style="fill: #f19d39; stroke: #f19d39"/>
     <use xlink:href="#m67346b6b05" x="99.258874" y="299.387953" style="fill: #f19d39; stroke: #f19d39"/>
    </g>
   </g>
   <g id="PathCollection_2">
    <defs>
     <path id="mca5f2bea72" d="M 0 3 
C 0.795609 3 1.55874 2.683901 2.12132 2.12132 
C 2.683901 1.55874 3 0.795609 3 0 
C 3 -0.795609 2.683901 -1.55874 2.12132 -2.12132 
C 1.55874 -2.683901 0.795609 -3 0 -3 
C -0.795609 -3 -1.55874 -2.683901 -2.12132 -2.12132 
C -2.683901 -1.55874 -3 -0.795609 -3 0 
C -3 0.795609 -2.683901 1.55874 -2.12132 2.12132 
C -1.55874 2.683901 -0.795609 3 0 3 
z
" style="stroke: #102bcd"/>
    </defs>
    <g clip-path="url(#pd2424d4a2c)">
     <use xlink:href="#mca5f2bea72" x="284.017131" y="287.052297" style="fill: #102bcd; stroke: #102bcd"/>
     <use xlink:href="#mca5f2bea72" x="128.843534" y="180.068624" style="fill: #102bcd; stroke: #102bcd"/>
     <use xlink:href="#mca5f2bea72" x="91.182532" y="225.593509" style="fill: #102bcd; stroke: #102bcd"/>
     <use xlink:href="#mca5f2bea72" x="109.357268" y="196.445395" style="fill: #102bcd; stroke: #102bcd"/>
     <use xlink:href="#mca5f2bea72" x="98.563995" y="233.352436" style="fill: #102bcd; stroke: #102bcd"/>
     <use xlink:href="#mca5f2bea72" x="166.703591" y="222.348056" style="fill: #102bcd; stroke: #102bcd"/>
     <use xlink:href="#mca5f2bea72" x="65.248221" y="193.391857" style="fill: #102bcd; stroke: #102bcd"/>
     <use xlink:href="#mca5f2bea72" x="220.59811" y="304.760956" style="fill: #102bcd; stroke: #102bcd"/>
     <use xlink:href="#mca5f2bea72" x="93.423422" y="194.013882" style="fill: #102bcd; stroke: #102bcd"/>
     <use xlink:href="#mca5f2bea72" x="233.851486" y="323.800241" style="fill: #102bcd; stroke: #102bcd"/>
     <use xlink:href="#mca5f2bea72" x="98.760435" y="186.152287" style="fill: #102bcd; stroke: #102bcd"/>
     <use xlink:href="#mca5f2bea72" x="77.557887" y="188.105798" style="fill: #102bcd; stroke: #102bcd"/>
     <use xlink:href="#mca5f2bea72" x="101.65724" y="193.628556" style="fill: #102bcd; stroke: #102bcd"/>
     <use xlink:href="#mca5f2bea72" x="181.979933" y="262.53154" style="fill: #102bcd; stroke: #102bcd"/>
     <use xlink:href="#mca5f2bea72" x="227.827267" y="334.242718" style="fill: #102bcd; stroke: #102bcd"/>
     <use xlink:href="#mca5f2bea72" x="282.717882" y="312.102016" style="fill: #102bcd; stroke: #102bcd"/>
     <use xlink:href="#mca5f2bea72" x="81.136131" y="243.497263" style="fill: #102bcd; stroke: #102bcd"/>
     <use xlink:href="#mca5f2bea72" x="102.676736" y="185.526888" style="fill: #102bcd; stroke: #102bcd"/>
     <use xlink:href="#mca5f2bea72" x="290.212648" y="336.546559" style="fill: #102bcd; stroke: #102bcd"/>
     <use xlink:href="#mca5f2bea72" x="150.844958" y="213.040073" style="fill: #102bcd; stroke: #102bcd"/>
     <use xlink:href="#mca5f2bea72" x="252.533931" y="343.930559" style="fill: #102bcd; stroke: #102bcd"/>
     <use xlink:href="#mca5f2bea72" x="146.731647" y="188.731444" style="fill: #102bcd; stroke: #102bcd"/>
     <use xlink:href="#mca5f2bea72" x="79.499151" y="218.935049" style="fill: #102bcd; stroke: #102bcd"/>
     <use xlink:href="#mca5f2bea72" x="93.499301" y="203.014873" style="fill: #102bcd; stroke: #102bcd"/>
     <use xlink:href="#mca5f2bea72" x="103.365365" y="270.399352" style="fill: #102bcd; stroke: #102bcd"/>
     <use xlink:href="#mca5f2bea72" x="118.690757" y="231.549144" style="fill: #102bcd; stroke: #102bcd"/>
     <use xlink:href="#mca5f2bea72" x="96.628646" y="276.930572" style="fill: #102bcd; stroke: #102bcd"/>
     <use xlink:href="#mca5f2bea72" x="76.495312" y="191.680227" style="fill: #102bcd; stroke: #102bcd"/>
     <use xlink:href="#mca5f2bea72" x="119.551712" y="202.561034" style="fill: #102bcd; stroke: #102bcd"/>
     <use xlink:href="#mca5f2bea72" x="82.39589" y="251.10494" style="fill: #102bcd; stroke: #102bcd"/>
     <use xlink:href="#mca5f2bea72" x="165.600899" y="193.906229" style="fill: #102bcd; stroke: #102bcd"/>
     <use xlink:href="#mca5f2bea72" x="93.80903" y="207.313817" style="fill: #102bcd; stroke: #102bcd"/>
     <use xlink:href="#mca5f2bea72" x="161.649274" y="220.14881" style="fill: #102bcd; stroke: #102bcd"/>
     <use xlink:href="#mca5f2bea72" x="76.254809" y="222.373786" style="fill: #102bcd; stroke: #102bcd"/>
     <use xlink:href="#mca5f2bea72" x="154.521707" y="227.025938" style="fill: #102bcd; stroke: #102bcd"/>
     <use xlink:href="#mca5f2bea72" x="126.421437" y="223.847693" style="fill: #102bcd; stroke: #102bcd"/>
     <use xlink:href="#mca5f2bea72" x="114.799064" y="216.878525" style="fill: #102bcd; stroke: #102bcd"/>
     <use xlink:href="#mca5f2bea72" x="119.373445" y="227.052673" style="fill: #102bcd; stroke: #102bcd"/>
     <use xlink:href="#mca5f2bea72" x="79.419845" y="227.559497" style="fill: #102bcd; stroke: #102bcd"/>
     <use xlink:href="#mca5f2bea72" x="81.718813" y="219.356266" style="fill: #102bcd; stroke: #102bcd"/>
     <use xlink:href="#mca5f2bea72" x="201.990067" y="337.985298" style="fill: #102bcd; stroke: #102bcd"/>
     <use xlink:href="#mca5f2bea72" x="121.657791" y="159.976179" style="fill: #102bcd; stroke: #102bcd"/>
     <use xlink:href="#mca5f2bea72" x="89.287511" y="231.106086" style="fill: #102bcd; stroke: #102bcd"/>
     <use xlink:href="#mca5f2bea72" x="103.097864" y="222.938225" style="fill: #102bcd; stroke: #102bcd"/>
     <use xlink:href="#mca5f2bea72" x="172.094515" y="241.949142" style="fill: #102bcd; stroke: #102bcd"/>
     <use xlink:href="#mca5f2bea72" x="102.206222" y="237.639651" style="fill: #102bcd; stroke: #102bcd"/>
     <use xlink:href="#mca5f2bea72" x="148.717925" y="149.791304" style="fill: #102bcd; stroke: #102bcd"/>
     <use xlink:href="#mca5f2bea72" x="268.392613" y="299.507475" style="fill: #102bcd; stroke: #102bcd"/>
     <use xlink:href="#mca5f2bea72" x="126.259462" y="156.098338" style="fill: #102bcd; stroke: #102bcd"/>
     <use xlink:href="#mca5f2bea72" x="143.422758" y="270.784791" style="fill: #102bcd; stroke: #102bcd"/>
     <use xlink:href="#mca5f2bea72" x="129.046609" y="154.931244" style="fill: #102bcd; stroke: #102bcd"/>
     <use xlink:href="#mca5f2bea72" x="220.333864" y="306.799885" style="fill: #102bcd; stroke: #102bcd"/>
     <use xlink:href="#mca5f2bea72" x="108.542013" y="188.612848" style="fill: #102bcd; stroke: #102bcd"/>
     <use xlink:href="#mca5f2bea72" x="171.51261" y="368.609443" style="fill: #102bcd; stroke: #102bcd"/>
     <use xlink:href="#mca5f2bea72" x="101.744224" y="157.59273" style="fill: #102bcd; stroke: #102bcd"/>
     <use xlink:href="#mca5f2bea72" x="171.61923" y="317.613076" style="fill: #102bcd; stroke: #102bcd"/>
     <use xlink:href="#mca5f2bea72" x="190.952105" y="271.030822" style="fill: #102bcd; stroke: #102bcd"/>
     <use xlink:href="#mca5f2bea72" x="248.816836" y="347.091388" style="fill: #102bcd; stroke: #102bcd"/>
     <use xlink:href="#mca5f2bea72" x="149.255917" y="219.179793" style="fill: #102bcd; stroke: #102bcd"/>
     <use xlink:href="#mca5f2bea72" x="91.082872" y="250.757604" style="fill: #102bcd; stroke: #102bcd"/>
     <use xlink:href="#mca5f2bea72" x="69.79728" y="260.059758" style="fill: #102bcd; stroke: #102bcd"/>
     <use xlink:href="#mca5f2bea72" x="123.44002" y="157.678225" style="fill: #102bcd; stroke: #102bcd"/>
     <use xlink:href="#mca5f2bea72" x="129.6273" y="227.490887" style="fill: #102bcd; stroke: #102bcd"/>
     <use xlink:href="#mca5f2bea72" x="208.168768" y="368.586098" style="fill: #102bcd; stroke: #102bcd"/>
     <use xlink:href="#mca5f2bea72" x="156.970457" y="159.859542" style="fill: #102bcd; stroke: #102bcd"/>
     <use xlink:href="#mca5f2bea72" x="96.183871" y="245.046613" style="fill: #102bcd; stroke: #102bcd"/>
     <use xlink:href="#mca5f2bea72" x="114.241655" y="242.10526" style="fill: #102bcd; stroke: #102bcd"/>
     <use xlink:href="#mca5f2bea72" x="187.878607" y="336.061308" style="fill: #102bcd; stroke: #102bcd"/>
     <use xlink:href="#mca5f2bea72" x="65.739288" y="211.182485" style="fill: #102bcd; stroke: #102bcd"/>
     <use xlink:href="#mca5f2bea72" x="268.245092" y="357.856787" style="fill: #102bcd; stroke: #102bcd"/>
     <use xlink:href="#mca5f2bea72" x="78.014353" y="223.433401" style="fill: #102bcd; stroke: #102bcd"/>
     <use xlink:href="#mca5f2bea72" x="123.10391" y="273.684482" style="fill: #102bcd; stroke: #102bcd"/>
     <use xlink:href="#mca5f2bea72" x="138.401825" y="234.794433" style="fill: #102bcd; stroke: #102bcd"/>
     <use xlink:href="#mca5f2bea72" x="241.19598" y="361.060947" style="fill: #102bcd; stroke: #102bcd"/>
     <use xlink:href="#mca5f2bea72" x="169.330682" y="351.831299" style="fill: #102bcd; stroke: #102bcd"/>
     <use xlink:href="#mca5f2bea72" x="149.859273" y="263.911461" style="fill: #102bcd; stroke: #102bcd"/>
     <use xlink:href="#mca5f2bea72" x="151.708225" y="234.456359" style="fill: #102bcd; stroke: #102bcd"/>
     <use xlink:href="#mca5f2bea72" x="135.43701" y="156.432023" style="fill: #102bcd; stroke: #102bcd"/>
    </g>
   </g>
   <g id="PathCollection_3">
    <defs>
     <path id="mbe60b07e3d" d="M 0 3 
C 0.795609 3 1.55874 2.683901 2.12132 2.12132 
C 2.683901 1.55874 3 0.795609 3 0 
C 3 -0.795609 2.683901 -1.55874 2.12132 -2.12132 
C 1.55874 -2.683901 0.795609 -3 0 -3 
C -0.795609 -3 -1.55874 -2.683901 -2.12132 -2.12132 
C -2.683901 -1.55874 -3 -0.795609 -3 0 
C -3 0.795609 -2.683901 1.55874 -2.12132 2.12132 
C -1.55874 2.683901 -0.795609 3 0 3 
z
" style="stroke: #fadf4b"/>
    </defs>
    <g clip-path="url(#pd2424d4a2c)">
     <use xlink:href="#mbe60b07e3d" x="186.802156" y="172.160844" style="fill: #fadf4b; stroke: #fadf4b"/>
     <use xlink:href="#mbe60b07e3d" x="158.192187" y="162.153691" style="fill: #fadf4b; stroke: #fadf4b"/>
     <use xlink:href="#mbe60b07e3d" x="241.658391" y="245.757643" style="fill: #fadf4b; stroke: #fadf4b"/>
     <use xlink:href="#mbe60b07e3d" x="279.307474" y="251.885422" style="fill: #fadf4b; stroke: #fadf4b"/>
     <use xlink:href="#mbe60b07e3d" x="189.554009" y="212.0146" style="fill: #fadf4b; stroke: #fadf4b"/>
     <use xlink:href="#mbe60b07e3d" x="179.044362" y="236.475444" style="fill: #fadf4b; stroke: #fadf4b"/>
     <use xlink:href="#mbe60b07e3d" x="210.513785" y="193.705677" style="fill: #fadf4b; stroke: #fadf4b"/>
     <use xlink:href="#mbe60b07e3d" x="237.368257" y="151.902747" style="fill: #fadf4b; stroke: #fadf4b"/>
     <use xlink:href="#mbe60b07e3d" x="226.470188" y="258.954338" style="fill: #fadf4b; stroke: #fadf4b"/>
     <use xlink:href="#mbe60b07e3d" x="174.610264" y="200.304244" style="fill: #fadf4b; stroke: #fadf4b"/>
     <use xlink:href="#mbe60b07e3d" x="189.317867" y="244.460725" style="fill: #fadf4b; stroke: #fadf4b"/>
     <use xlink:href="#mbe60b07e3d" x="183.165757" y="257.471019" style="fill: #fadf4b; stroke: #fadf4b"/>
     <use xlink:href="#mbe60b07e3d" x="261.746518" y="227.865712" style="fill: #fadf4b; stroke: #fadf4b"/>
     <use xlink:href="#mbe60b07e3d" x="169.600632" y="261.69554" style="fill: #fadf4b; stroke: #fadf4b"/>
     <use xlink:href="#mbe60b07e3d" x="170.956807" y="237.2141" style="fill: #fadf4b; stroke: #fadf4b"/>
     <use xlink:href="#mbe60b07e3d" x="221.162419" y="150.333693" style="fill: #fadf4b; stroke: #fadf4b"/>
     <use xlink:href="#mbe60b07e3d" x="228.816078" y="247.711004" style="fill: #fadf4b; stroke: #fadf4b"/>
    </g>
   </g>
   <g id="patch_3">
    <path d="M 54 384.48 
L 54 138.615652 
" style="fill: none; stroke: #262626; stroke-width: 1.25; stroke-linejoin: miter; stroke-linecap: square"/>
   </g>
   <g id="patch_4">
    <path d="M 301.46087 384.48 
L 301.46087 138.615652 
" style="fill: none; stroke: #262626; stroke-width: 1.25; stroke-linejoin: miter; stroke-linecap: square"/>
   </g>
   <g id="patch_5">
    <path d="M 54 384.48 
L 301.46087 384.48 
" style="fill: none; stroke: #262626; stroke-width: 1.25; stroke-linejoin: miter; stroke-linecap: square"/>
   </g>
   <g id="patch_6">
    <path d="M 54 138.615652 
L 301.46087 138.615652 
" style="fill: none; stroke: #262626; stroke-width: 1.25; stroke-linejoin: miter; stroke-linecap: square"/>
   </g>
   <g id="legend_1">
    <g id="patch_7">
     <path d="M 250.288526 195.853465 
L 293.76087 195.853465 
Q 295.96087 195.853465 295.96087 193.653465 
L 295.96087 146.315652 
Q 295.96087 144.115652 293.76087 144.115652 
L 250.288526 144.115652 
Q 248.088526 144.115652 248.088526 146.315652 
L 248.088526 193.653465 
Q 248.088526 195.853465 250.288526 195.853465 
z
" style="fill: #ffffff; opacity: 0.8; stroke: #cccccc; stroke-linejoin: miter"/>
    </g>
    <g id="PathCollection_4">
     <g>
      <use xlink:href="#m67346b6b05" x="263.488526" y="153.986433" style="fill: #f19d39; stroke: #f19d39"/>
     </g>
    </g>
    <g id="text_11">
     <!-- I -->
     <g style="fill: #262626" transform="translate(283.288526 156.873933) scale(0.11 -0.11)">
      <defs>
       <path id="DejaVuSans-49" d="M 628 4666 
L 1259 4666 
L 1259 0 
L 628 0 
L 628 4666 
z
" transform="scale(0.015625)"/>
      </defs>
      <use xlink:href="#DejaVuSans-49"/>
     </g>
    </g>
    <g id="PathCollection_5">
     <g>
      <use xlink:href="#mca5f2bea72" x="263.488526" y="170.132371" style="fill: #102bcd; stroke: #102bcd"/>
     </g>
    </g>
    <g id="text_12">
     <!-- T -->
     <g style="fill: #262626" transform="translate(283.288526 173.019871) scale(0.11 -0.11)">
      <defs>
       <path id="DejaVuSans-54" d="M -19 4666 
L 3928 4666 
L 3928 4134 
L 2272 4134 
L 2272 0 
L 1638 0 
L 1638 4134 
L -19 4134 
L -19 4666 
z
" transform="scale(0.015625)"/>
      </defs>
      <use xlink:href="#DejaVuSans-54"/>
     </g>
    </g>
    <g id="PathCollection_6">
     <g>
      <use xlink:href="#mbe60b07e3d" x="263.488526" y="186.278308" style="fill: #fadf4b; stroke: #fadf4b"/>
     </g>
    </g>
    <g id="text_13">
     <!-- H -->
     <g style="fill: #262626" transform="translate(283.288526 189.165808) scale(0.11 -0.11)">
      <defs>
       <path id="DejaVuSans-48" d="M 628 4666 
L 1259 4666 
L 1259 2753 
L 3553 2753 
L 3553 4666 
L 4184 4666 
L 4184 0 
L 3553 0 
L 3553 2222 
L 1259 2222 
L 1259 0 
L 628 0 
L 628 4666 
z
" transform="scale(0.015625)"/>
      </defs>
      <use xlink:href="#DejaVuSans-48"/>
     </g>
    </g>
   </g>
  </g>
  <g id="axes_2">
   <g id="patch_8">
    <path d="M 54 124.153043 
L 301.46087 124.153043 
L 301.46087 51.84 
L 54 51.84 
z
" style="fill: #ffffff"/>
   </g>
   <g id="matplotlib.axis_3">
    <g id="xtick_6">
     <g id="line2d_11">
      <g>
       <use xlink:href="#m20ad928f89" x="88.934976" y="124.153043" style="fill: #262626; stroke: #262626; stroke-width: 1.25"/>
      </g>
     </g>
    </g>
    <g id="xtick_7">
     <g id="line2d_12">
      <g>
       <use xlink:href="#m20ad928f89" x="131.063638" y="124.153043" style="fill: #262626; stroke: #262626; stroke-width: 1.25"/>
      </g>
     </g>
    </g>
    <g id="xtick_8">
     <g id="line2d_13">
      <g>
       <use xlink:href="#m20ad928f89" x="173.1923" y="124.153043" style="fill: #262626; stroke: #262626; stroke-width: 1.25"/>
      </g>
     </g>
    </g>
    <g id="xtick_9">
     <g id="line2d_14">
      <g>
       <use xlink:href="#m20ad928f89" x="215.320962" y="124.153043" style="fill: #262626; stroke: #262626; stroke-width: 1.25"/>
      </g>
     </g>
    </g>
    <g id="xtick_10">
     <g id="line2d_15">
      <g>
       <use xlink:href="#m20ad928f89" x="257.449624" y="124.153043" style="fill: #262626; stroke: #262626; stroke-width: 1.25"/>
      </g>
     </g>
    </g>
   </g>
   <g id="matplotlib.axis_4"/>
   <g id="line2d_16">
    <path d="M 115.044816 124.137112 
L 125.607701 123.991751 
L 130.889143 123.730185 
L 135.290345 123.295708 
L 138.811306 122.734944 
L 142.332267 121.931967 
L 145.853229 120.856736 
L 149.37419 119.51383 
L 153.775392 117.543334 
L 161.697555 113.890208 
L 164.338276 112.886486 
L 166.978998 112.086814 
L 169.619719 111.524937 
L 172.26044 111.210085 
L 174.901161 111.125602 
L 178.422122 111.300024 
L 183.703564 111.891593 
L 189.865247 112.534871 
L 194.266449 112.758705 
L 209.230535 113.200156 
L 213.631737 113.690408 
L 220.67366 114.764378 
L 229.476063 116.084486 
L 241.799428 117.847445 
L 247.08087 118.882565 
L 255.003034 120.727724 
L 261.164716 122.082955 
L 265.565918 122.848146 
L 269.96712 123.401198 
L 275.248562 123.810003 
L 281.410245 124.037714 
L 290.212648 124.135645 
L 290.212648 124.135645 
" clip-path="url(#p9a84611c9e)" style="fill: none; stroke: #dd8452; stroke-width: 1.5; stroke-linecap: round"/>
   </g>
   <g id="line2d_17">
    <path d="M 65.248221 124.036993 
L 68.358686 123.782316 
L 70.224965 123.457696 
L 72.091244 122.912131 
L 73.33543 122.376075 
L 74.579616 121.661806 
L 75.823802 120.732153 
L 77.067989 119.549824 
L 78.312175 118.079942 
L 79.556361 116.292894 
L 80.800547 114.167245 
L 82.044733 111.692408 
L 83.911012 107.334625 
L 85.777291 102.269421 
L 88.265663 94.672304 
L 94.486593 74.904088 
L 96.352872 69.797601 
L 98.219151 65.422579 
L 99.463337 62.958966 
L 100.707523 60.867917 
L 101.951709 59.142991 
L 103.195895 57.767793 
L 104.440081 56.719825 
L 105.684267 55.974286 
L 106.928453 55.50716 
L 108.172639 55.297117 
L 109.416825 55.326007 
L 110.661011 55.578065 
L 111.905197 56.038206 
L 113.149383 56.689976 
L 115.015662 57.982923 
L 116.881941 59.578278 
L 119.992406 62.631781 
L 124.96915 67.589623 
L 128.701708 70.947177 
L 145.498219 85.268827 
L 149.230778 88.007804 
L 155.451708 92.40226 
L 157.317987 94.033342 
L 159.184266 95.994853 
L 161.050545 98.355427 
L 162.916824 101.119079 
L 165.405196 105.291496 
L 170.38194 113.824911 
L 172.248219 116.535447 
L 174.114498 118.787339 
L 175.358684 120.015391 
L 176.60287 121.03 
L 177.847056 121.846424 
L 179.713335 122.748047 
L 181.579614 123.339004 
L 183.445893 123.704654 
L 185.934265 123.966036 
L 189.04473 124.097935 
L 189.04473 124.097935 
" clip-path="url(#p9a84611c9e)" style="fill: none; stroke: #4c72b0; stroke-width: 1.5; stroke-linecap: round"/>
   </g>
   <g id="patch_9">
    <path d="M 54 124.153043 
L 54 51.84 
" style="fill: none; stroke: #262626; stroke-width: 1.25; stroke-linejoin: miter; stroke-linecap: square"/>
   </g>
   <g id="patch_10">
    <path d="M 301.46087 124.153043 
L 301.46087 51.84 
" style="fill: none; stroke: #262626; stroke-width: 1.25; stroke-linejoin: miter; stroke-linecap: square"/>
   </g>
   <g id="patch_11">
    <path d="M 54 124.153043 
L 301.46087 124.153043 
" style="fill: none; stroke: #262626; stroke-width: 1.25; stroke-linejoin: miter; stroke-linecap: square"/>
   </g>
   <g id="patch_12">
    <path d="M 54 51.84 
L 301.46087 51.84 
" style="fill: none; stroke: #262626; stroke-width: 1.25; stroke-linejoin: miter; stroke-linecap: square"/>
   </g>
  </g>
  <g id="axes_3">
   <g id="patch_13">
    <path d="M 316.017391 384.48 
L 388.8 384.48 
L 388.8 138.615652 
L 316.017391 138.615652 
z
" style="fill: #ffffff"/>
   </g>
   <g id="matplotlib.axis_5"/>
   <g id="matplotlib.axis_6">
    <g id="ytick_6">
     <g id="line2d_18">
      <g>
       <use xlink:href="#m695d71995a" x="316.017391" y="346.333089" style="fill: #262626; stroke: #262626; stroke-width: 1.25"/>
      </g>
     </g>
    </g>
    <g id="ytick_7">
     <g id="line2d_19">
      <g>
       <use xlink:href="#m695d71995a" x="316.017391" y="305.137756" style="fill: #262626; stroke: #262626; stroke-width: 1.25"/>
      </g>
     </g>
    </g>
    <g id="ytick_8">
     <g id="line2d_20">
      <g>
       <use xlink:href="#m695d71995a" x="316.017391" y="263.942423" style="fill: #262626; stroke: #262626; stroke-width: 1.25"/>
      </g>
     </g>
    </g>
    <g id="ytick_9">
     <g id="line2d_21">
      <g>
       <use xlink:href="#m695d71995a" x="316.017391" y="222.747089" style="fill: #262626; stroke: #262626; stroke-width: 1.25"/>
      </g>
     </g>
    </g>
    <g id="ytick_10">
     <g id="line2d_22">
      <g>
       <use xlink:href="#m695d71995a" x="316.017391" y="181.551756" style="fill: #262626; stroke: #262626; stroke-width: 1.25"/>
      </g>
     </g>
    </g>
   </g>
   <g id="line2d_23">
    <path d="M 316.060046 307.343485 
L 316.261846 301.009729 
L 316.636692 297.051131 
L 317.211959 293.884253 
L 317.879057 291.509095 
L 318.803142 289.133936 
L 320.025903 286.758778 
L 321.573799 284.383619 
L 323.452344 282.008461 
L 325.64417 279.633302 
L 328.111992 277.258144 
L 331.745253 274.091266 
L 336.671757 270.132668 
L 342.943225 265.382351 
L 350.628961 259.840315 
L 361.718896 251.92312 
L 364.705258 249.547961 
L 367.294595 247.172803 
L 368.720093 245.589364 
L 369.851355 244.005925 
L 370.649473 242.422486 
L 371.086345 240.839047 
L 371.148423 239.255608 
L 370.83954 237.672169 
L 370.182283 236.08873 
L 369.217471 234.505291 
L 368.001565 232.921852 
L 365.85613 230.546693 
L 359.846434 224.212937 
L 357.903274 221.837779 
L 355.597807 218.670901 
L 351.614676 213.128864 
L 349.016125 209.961986 
L 344.314893 204.41995 
L 342.643903 202.044791 
L 341.75331 200.461352 
L 341.063104 198.877913 
L 340.566989 197.294474 
L 340.116642 194.919316 
L 339.367876 189.377279 
L 338.913729 187.79384 
L 338.246539 186.210401 
L 337.33739 184.626962 
L 336.18056 183.043523 
L 334.793239 181.460084 
L 332.365912 179.084926 
L 322.903686 170.376011 
L 320.926046 168.000853 
L 319.837189 166.417414 
L 318.930356 164.833975 
L 317.884732 162.458816 
L 317.160662 160.083658 
L 316.685763 157.708499 
L 316.321367 154.541621 
L 316.118435 150.583024 
L 316.097204 149.791304 
L 316.097204 149.791304 
" clip-path="url(#p76ace2e1eb)" style="fill: none; stroke: #dd8452; stroke-width: 1.5; stroke-linecap: round"/>
   </g>
   <g id="line2d_24">
    <path d="M 316.164704 373.304348 
L 316.397383 370.580647 
L 316.748464 368.537872 
L 317.357967 366.495097 
L 317.973165 365.133247 
L 318.811054 363.771397 
L 319.924957 362.409546 
L 321.370072 361.047696 
L 323.199201 359.685846 
L 325.457327 358.323996 
L 328.175454 356.962146 
L 331.364371 355.600295 
L 335.009182 354.238445 
L 341.225893 352.19567 
L 350.447808 349.47197 
L 362.052323 346.067344 
L 368.238285 344.024569 
L 371.807352 342.662719 
L 374.85666 341.300868 
L 377.364316 339.939018 
L 379.346287 338.577168 
L 380.851201 337.215318 
L 381.951658 335.853468 
L 382.733458 334.491618 
L 383.284419 333.129767 
L 383.848606 331.086992 
L 384.644322 327.001442 
L 385.163345 323.596816 
L 385.336193 320.873116 
L 385.250854 318.83034 
L 384.855952 316.10664 
L 383.918973 312.02109 
L 382.01687 304.530913 
L 381.193579 302.488138 
L 380.454542 301.126288 
L 379.527632 299.764438 
L 378.396258 298.402588 
L 376.319703 296.359812 
L 373.855722 294.317037 
L 369.276979 290.912412 
L 364.742414 287.507786 
L 361.4424 284.784086 
L 356.15242 280.01761 
L 352.983457 277.29391 
L 349.41458 274.570209 
L 345.356109 271.846509 
L 339.716118 268.441884 
L 330.488744 262.994483 
L 327.37977 260.951708 
L 324.634144 258.908932 
L 322.31596 256.866157 
L 320.447184 254.823382 
L 319.010314 252.780606 
L 317.957411 250.737831 
L 317.222518 248.695056 
L 316.734144 246.652281 
L 316.351985 243.92858 
L 316.132702 240.523955 
L 316.062248 237.800254 
L 316.062248 237.800254 
" clip-path="url(#p76ace2e1eb)" style="fill: none; stroke: #4c72b0; stroke-width: 1.5; stroke-linecap: round"/>
   </g>
   <g id="patch_14">
    <path d="M 316.017391 384.48 
L 316.017391 138.615652 
" style="fill: none; stroke: #262626; stroke-width: 1.25; stroke-linejoin: miter; stroke-linecap: square"/>
   </g>
   <g id="patch_15">
    <path d="M 388.8 384.48 
L 388.8 138.615652 
" style="fill: none; stroke: #262626; stroke-width: 1.25; stroke-linejoin: miter; stroke-linecap: square"/>
   </g>
   <g id="patch_16">
    <path d="M 316.017391 384.48 
L 388.8 384.48 
" style="fill: none; stroke: #262626; stroke-width: 1.25; stroke-linejoin: miter; stroke-linecap: square"/>
   </g>
   <g id="patch_17">
    <path d="M 316.017391 138.615652 
L 388.8 138.615652 
" style="fill: none; stroke: #262626; stroke-width: 1.25; stroke-linejoin: miter; stroke-linecap: square"/>
   </g>
  </g>
 </g>
 <defs>
  <clipPath id="pd2424d4a2c">
   <rect x="54" y="138.615652" width="247.46087" height="245.864348"/>
  </clipPath>
  <clipPath id="p9a84611c9e">
   <rect x="54" y="51.84" width="247.46087" height="72.313043"/>
  </clipPath>
  <clipPath id="p76ace2e1eb">
   <rect x="316.017391" y="138.615652" width="72.782609" height="245.864348"/>
  </clipPath>
 </defs>
</svg>
